<svg width="48" height="48" viewBox="0 0 48 48" fill="none" xmlns="http://www.w3.org/2000/svg">
<path d="M24 48C37.2548 48 48 37.2548 48 24C48 10.7452 37.2548 0 24 0C10.7452 0 0 10.7452 0 24C0 37.2548 10.7452 48 24 48Z" fill="#988430"/>
<path d="M24 47.2312C36.8303 47.2312 47.2312 36.8303 47.2312 24C47.2312 11.1698 36.8303 0.768799 24 0.768799C11.1698 0.768799 0.768799 11.1698 0.768799 24C0.768799 36.8303 11.1698 47.2312 24 47.2312Z" fill="#7A6A2A"/>
<path d="M24 46.7418C36.5599 46.7418 46.7417 36.56 46.7417 24C46.7417 11.4401 36.5599 1.2583 24 1.2583C11.4401 1.2583 1.25824 11.4401 1.25824 24C1.25824 36.56 11.4401 46.7418 24 46.7418Z" fill="#BA9F33"/>
<path fill-rule="evenodd" clip-rule="evenodd" d="M10.4932 21.4368C10.3572 21.3126 10.2136 21.1882 10.0815 21.0641C9.94943 20.9399 9.81375 20.8155 9.67781 20.6913L9.27384 20.3073C9.20779 20.2413 9.13791 20.1832 9.07186 20.1169C9.00581 20.0588 8.92824 19.9927 8.86219 19.9343C8.32613 19.4257 7.78699 18.917 7.25835 18.4081C7.80594 18.9091 8.342 19.4065 8.88959 19.9149L9.07979 20.1053C9.14584 20.1711 9.21573 20.2295 9.28178 20.2955L9.68549 20.6683C9.82143 20.7924 9.95352 20.9169 10.0895 21.0523C10.2254 21.1877 10.3575 21.3124 10.4934 21.4363L10.4932 21.4368ZM3.37867 21.36C3.37867 21.36 5.32811 21.5617 6.27967 21.6976C7.16107 21.8221 9.91845 22.2452 9.91845 22.2452L3.37867 21.36ZM3.37867 21.36C3.92626 21.4066 4.47384 21.4647 5.02143 21.5231C5.30098 21.5502 5.56901 21.5812 5.83704 21.6083L6.24843 21.6552C6.38437 21.6744 6.51647 21.6938 6.6524 21.7133L8.28363 21.9734L9.09899 22.1093C9.36703 22.1559 9.63506 22.2066 9.91461 22.2532C9.64658 22.226 9.36703 22.1871 9.09899 22.1482L8.28363 22.0317L6.6524 21.7911C6.51647 21.7716 6.38437 21.7442 6.24843 21.725L5.83679 21.6777C5.56875 21.6505 5.2892 21.6116 5.02117 21.5804C4.47359 21.5146 3.926 21.4445 3.37842 21.3592L3.37867 21.36ZM9.7244 22.7531C9.7244 22.7531 7.64287 23.2815 6.93989 23.4835C6.24869 23.6737 4.15538 24.3106 4.15538 24.3106L9.72415 22.7534L9.7244 22.7531Z" fill="#CFB66C"/>
<path fill-rule="evenodd" clip-rule="evenodd" d="M9.72417 22.7532C9.26209 22.8891 8.80257 23.0212 8.33384 23.1456L6.9435 23.5184C6.48142 23.6543 6.0219 23.7864 5.5611 23.9223L4.8699 24.1125C4.64078 24.1786 4.40782 24.2367 4.17102 24.303C4.39988 24.2262 4.6331 24.1476 4.86222 24.0816L5.55342 23.8604C6.0155 23.7165 6.47502 23.5806 6.93582 23.437C7.40558 23.3205 7.86792 23.1961 8.33768 23.0834C8.78414 22.9708 9.25416 22.8584 9.72417 22.7534V22.7532ZM4.44673 25.5922C4.6756 25.5067 7.31649 24.2759 7.93012 23.9884C8.23732 23.8445 9.13025 23.5276 9.13025 23.5276L4.44673 25.5922Z" fill="#CFB66C"/>
<path fill-rule="evenodd" clip-rule="evenodd" d="M4.44673 25.5924C4.64846 25.5156 4.83892 25.4216 5.03297 25.3323L5.60769 25.0643L6.76122 24.509C7.14522 24.3265 7.51847 24.125 7.9145 23.9535C8.11649 23.8683 8.31847 23.7984 8.5202 23.7323L8.8274 23.6353C8.9321 23.6082 9.02938 23.5769 9.1346 23.5498C8.7506 23.7323 8.34638 23.8877 7.96186 24.0661C7.57786 24.2566 7.18516 24.412 6.78887 24.5827L5.61614 25.0991C5.22241 25.2586 4.83841 25.4293 4.44647 25.5924H4.44673ZM4.70273 26.6676C4.70273 26.6676 7.09479 25.2657 7.91809 24.8152C8.34919 24.5746 9.74337 23.8831 9.74337 23.8831L4.70273 26.6676Z" fill="#CFB66C"/>
<path fill-rule="evenodd" clip-rule="evenodd" d="M4.70294 26.668C5.10666 26.4195 5.5183 26.1671 5.92995 25.9108L6.54436 25.5378C6.75402 25.4136 6.956 25.2972 7.16977 25.173C7.37943 25.0486 7.58141 24.9244 7.79492 24.8079C7.89656 24.7452 8.00305 24.6907 8.11338 24.6449L8.43953 24.4818C8.87063 24.2721 9.30174 24.0584 9.75614 23.8759C9.34449 24.1362 8.92107 24.3576 8.4979 24.5865C8.28823 24.703 8.07447 24.8079 7.86481 24.9244C7.65514 25.0409 7.45316 25.1653 7.2394 25.278C7.02973 25.4021 6.82775 25.5186 6.61424 25.6312L5.98115 25.9768L4.70345 26.668H4.70294ZM9.72414 24.1902C9.72414 24.1902 8.23678 25.332 7.75524 25.697C7.2737 26.0621 5.85623 27.0874 5.85623 27.0874L9.72414 24.1902V24.1902Z" fill="#CFB66C"/>
<path fill-rule="evenodd" clip-rule="evenodd" d="M18.2602 33.398L17.4991 31.9573L17.9418 30.1553L21.099 28.936L19.7553 26.1788L20.4193 23.3943L21.6661 20.9009L25.5186 20.2952L28.3495 17.5962L34.4622 18.0583L35.6621 24.5942L33.3514 32.8233L32.0351 37.0837L26.699 37.2857L24.2215 35.5692L21.3205 34.3573L18.2602 33.398Z" fill="#E2CC85"/>
<path fill-rule="evenodd" clip-rule="evenodd" d="M27.6196 33.3515C27.6196 33.3515 26.8815 33.6894 25.6228 33.6116C25.2585 33.1224 22.7072 32.8932 22.7072 32.8932C22.7072 32.8932 22.3887 32.7962 21.8255 33.0292C21.2587 33.2596 20.7227 33.2312 20.2217 33.3553C19.7207 33.4795 19.2233 32.8272 18.8393 32.6912C18.4553 32.5476 17.9461 32.202 17.9461 32.202L16.8709 32.0971L14.7118 31.1844L11.2817 27.7671L10.3496 29.2263L10.0621 31.0321L11.0991 33.172L13.8913 35.7156L19.3359 37.098L22.5631 36.1472L26.6058 34.4384L27.6196 33.3512V33.3515Z" fill="#F1D789"/>
<path fill-rule="evenodd" clip-rule="evenodd" d="M8.27571 21.2738L8.96691 19.1808L9.79047 17.8291L12.4426 17.6077L11.6465 19.9301L9.42925 23.8758L10.3496 27.3981L8.7186 28.2135L8.21735 27.4447L7.81363 25.6817L7.7865 23.701L8.27571 21.2738Z" fill="#F4ECB4"/>
<path fill-rule="evenodd" clip-rule="evenodd" d="M11.2505 33.2079L10.7418 32.4972C10.7418 32.4972 10.6058 32.1593 10.6837 31.8641C10.7605 31.5651 10.7495 31.5457 10.7108 31.433C10.6722 31.3204 10.3458 30.932 10.3652 30.5979C10.3844 30.26 10.3381 30.1474 10.5864 29.8796C10.8465 29.6195 10.7689 29.1689 10.7689 29.1689L11.1068 29.3786L11.1836 29.2621C11.1836 29.2621 11.3078 29.3592 11.3078 29.5107C11.3349 29.301 11.2223 28.33 11.4786 28.1089C11.7348 27.8877 12.1892 29.1457 12.1892 29.1457L11.9097 27.3204L11.1911 25.4488L9.91336 23.74L9.83656 21.8563V21.6932C9.83656 21.6932 9.25006 22.5944 9.08699 23.306C8.97051 23.7953 9.25006 24.3894 9.19195 25.0924C9.1451 25.7915 9.08699 25.737 9.25774 26.014C9.4285 26.291 9.84424 26.8606 9.68117 27.2722C9.53755 27.6258 9.04808 27.3772 9.04808 27.3772C9.04808 27.3772 8.95105 27.6644 8.81896 27.7694C8.77236 27.5986 8.72193 27.4898 8.62875 27.3854C8.62081 27.4514 8.60161 27.5408 8.60161 27.5408C8.60161 27.5408 8.51611 27.2728 8.4306 26.9348C8.31438 26.4845 8.18996 25.8904 8.07732 25.5719C8.03073 25.7544 7.91425 26.3097 7.91425 26.3097L7.98029 27.1642L8.29876 28.3369L8.60596 29.1049L8.90497 30.0447L9.16481 30.676L9.37448 31.1576L9.55701 32.2412L10.4384 33.173L10.9084 33.383L11.2499 33.2081L11.2505 33.2079Z" fill="#F3E19D"/>
<path fill-rule="evenodd" clip-rule="evenodd" d="M8.73778 19.5649C8.73778 19.5649 8.10468 20.6401 7.92241 21.724C7.74014 22.8079 7.57681 23.9533 7.69201 25.4288C7.80849 26.9165 8.02993 27.8288 8.20862 28.4814C8.51582 29.565 9.31147 31.0718 9.31147 31.0718L9.33861 31.0135C9.20487 30.76 9.09813 30.4931 9.02014 30.2173C8.91518 29.8057 8.87627 29.3164 8.77925 29.095C8.69374 28.8738 8.55013 28.6834 8.48024 28.4115C8.41419 28.1514 8.40344 27.7398 8.20068 27.4331C8.11518 27.3086 8.01022 26.9825 7.97924 26.6564C7.94033 26.1669 7.9987 25.6193 7.95211 25.169C7.8666 24.4194 7.80849 23.9108 7.88606 23.5183C7.96363 23.1259 8.36785 22.0118 8.61643 21.1263C8.7795 20.5592 8.68222 20.0815 8.98123 19.5882C9.28024 19.099 9.46303 18.6679 9.52882 18.3689C9.60562 18.097 8.73675 19.5649 8.73675 19.5649H8.73778Z" fill="#F2E8B0"/>
<path fill-rule="evenodd" clip-rule="evenodd" d="M11.7399 19.134C11.7399 19.134 11.4138 19.2313 11.2584 19.4021C11.103 19.5651 11.037 19.7011 10.8273 19.9768C10.6176 20.2525 10.6059 20.4778 10.4348 20.8234C10.2641 21.1613 9.88726 21.67 9.84066 21.8525C9.79407 22.035 9.7165 22.8893 9.61948 23.2933C9.53398 23.6972 9.7165 24.1944 9.7165 24.1944L9.93769 24.1475C9.93769 24.1475 9.93769 24.435 10.1591 24.6293C10.3803 24.8196 10.4192 23.9845 10.4192 23.9845L11.2464 21.1923L12.4928 20.3457L12.6288 19.6622L11.7394 19.134H11.7399Z" fill="#F5EEC0"/>
<path fill-rule="evenodd" clip-rule="evenodd" d="M12.3456 20.4C12.3456 20.4 11.7591 20.4387 11.4719 20.6486C11.3554 20.7339 11.3088 20.8037 11.1847 20.9087C10.9555 21.0989 10.7223 21.2738 10.6099 21.5231C10.4855 21.7714 10.3496 22.1483 10.2564 22.8589C10.2175 23.1579 10.2175 23.4337 10.1903 23.6746C10.1514 24.0007 10.0933 24.2608 10.1243 24.4426C10.1632 24.8153 10.5477 25.0096 10.5851 25.4328L11.3813 25.0291L12.1308 22.0735L13.7231 21.0751L12.822 20.0654L12.3446 20.3982L12.3456 20.4Z" fill="#E6DB9D"/>
<path fill-rule="evenodd" clip-rule="evenodd" d="M8.1454 40.3018C8.14873 40.2726 8.15205 40.2434 8.15538 40.2135C8.27161 39.2151 8.29132 38.4583 8.37657 37.9845C8.50073 37.3127 8.58623 37.0629 8.56677 36.8115C8.53964 36.4078 8.50866 36.1126 8.54757 35.8018C8.60569 35.3902 9.00965 34.9009 8.99813 34.563C8.9902 34.295 8.85426 34.1204 8.73778 33.9573C8.6213 33.7943 8.52812 33.6583 8.52812 33.6583C8.52812 33.6583 9.32428 33.1107 9.3166 30.9048C9.33286 30.9094 9.3485 30.9159 9.36319 30.9242L9.75538 32.0386L10.0234 32.3648L11.0525 34.2832L12.3768 35.5689L14.3339 36.8852L15.5612 38.2208L15.6854 41.782L14.0815 43.8635L13.8189 44.3392C11.7321 43.2916 9.81861 41.9298 8.14514 40.3015L8.1454 40.3018Z" fill="#E5CB7A"/>
<path fill-rule="evenodd" clip-rule="evenodd" d="M13.0447 43.7087C13.0447 43.7087 13.0719 43.2661 13.4369 42.9786C13.4953 43.0756 13.534 43.1691 13.5224 43.2387C13.5885 43.1225 14.0506 42.3767 15.0953 42.1824C16.14 41.9922 16.3924 41.2311 16.3924 41.2311L18.6096 39.2157L21.1456 36.8817L24.2291 35.7981L25.6701 35.4445C25.6701 35.4445 25.6972 35.5495 25.643 35.7824C25.9107 35.7632 26.5049 35.6273 27.1224 35.4097C27.371 35.3127 27.6042 35.2738 27.7283 35.402C27.9109 35.5728 27.938 35.9767 27.9495 36.2174C28.2485 36.1513 28.5941 35.8641 28.8711 35.8912C29.314 35.9378 29.7062 36.4583 30.1567 36.4583C30.7509 36.4583 31.0187 36.0932 31.4344 35.8057C31.683 35.635 32.0401 35.4217 32.2421 35.2776C32.7236 34.9241 37.8188 33.3668 37.8188 33.3668L39.6052 33.4833L39.8927 35.4018L39.7391 40.4168C39.7201 40.435 39.7012 40.4539 39.682 40.4721L31.5596 44.7143L20.3008 46.4402C17.7788 46.0282 15.345 45.191 13.1031 43.9645L13.0455 43.7085L13.0447 43.7087Z" fill="#D8C173"/>
<path fill-rule="evenodd" clip-rule="evenodd" d="M8.82819 40.9398C8.98819 40.6052 9.13206 40.3254 9.1574 40.2253C9.17737 40.4271 9.21398 40.8697 9.28771 41.3402C9.13291 41.2086 8.97974 41.0751 8.82819 40.9396V40.9398Z" fill="#F1D789"/>
<path fill-rule="evenodd" clip-rule="evenodd" d="M17.0527 45.6594L18.5088 45.2544L18.633 45.2933C18.633 45.2933 18.699 45.3322 18.699 45.464C18.8816 45.3593 19.037 45.3785 19.1496 45.3089C19.2077 45.4331 19.2658 45.8447 19.5223 45.8951C19.7901 45.9535 20.0776 45.7787 20.3689 45.5575C20.6562 45.3284 20.9833 45.0409 21.2309 44.9244C21.3217 45.0914 21.4021 45.2638 21.4718 45.4407C21.7979 45.1806 22.365 44.1244 23.1726 44.1436C23.4061 43.5919 23.7961 43.1207 24.2944 42.7883C25.044 42.2796 25.5138 42.2407 26.1002 42.2873C26.3332 41.9847 26.6202 41.728 26.9468 41.5301C27.0439 41.569 27.3119 41.7321 27.646 41.5767C27.9839 41.4215 28.3643 40.8194 28.8653 40.7418C29.1353 40.7047 29.4098 40.7623 29.642 40.9049C29.642 40.9049 31.1012 39.4562 32.1081 38.9747C32.0691 38.8582 31.9916 38.4194 33.172 37.4484C33.238 37.5068 33.1914 37.6698 33.238 37.6788C33.2572 37.6788 33.5452 37.5546 33.9098 37.2748C34.3603 36.9372 34.9 36.5836 35.2261 36.4866C35.8405 36.3041 36.4923 36.6768 36.4923 36.6768C36.5477 36.6379 36.6095 36.609 36.6748 36.5913C36.83 36.5642 36.9426 36.5447 37.0281 36.5145C37.0204 36.7165 37.1331 37.0621 37.0281 37.3611C37.1497 37.4295 37.2785 37.4842 37.4121 37.5242C37.3463 37.6678 37.2025 38.0328 36.9618 38.2077C37.1635 38.3047 37.1907 38.4174 37.4782 38.5149C37.3617 38.678 37.171 38.9578 37.086 39.1293C37.0005 39.3118 36.6935 40.0691 36.5576 40.3563C36.414 40.6438 36.2199 41.1719 36.1265 41.2779C36.033 41.3839 35.6954 41.8332 35.4353 42.0544C35.6657 41.9689 36.6083 41.6816 37.0082 41.5728C36.8891 41.7474 36.2857 42.6427 35.7056 43.5036C32.9281 45.1683 29.8278 46.222 26.6111 46.5944C23.3944 46.9668 20.1353 46.6493 17.0509 45.6632L17.0527 45.6594Z" fill="#E0CD81"/>
<path fill-rule="evenodd" clip-rule="evenodd" d="M12.4417 20.2952C12.4417 20.2952 12.104 20.2952 12.0379 20.3418C11.9719 20.3884 12.3759 20.4856 12.5 20.5322C12.6242 20.5788 12.8922 20.7923 12.9621 20.9633C13.0282 21.1264 15.3893 22.0777 15.3893 22.0777L17.0591 21.9922L17.6349 21.1968L16.5397 20.2376L17.3077 17.9735L16.2904 18.1366L13.8438 19.5958L12.6165 20.0658L12.4417 20.2952Z" fill="#DFC57C"/>
<path fill-rule="evenodd" clip-rule="evenodd" d="M16.1088 21.0447C16.133 21.0838 16.167 21.1159 16.2074 21.1377C16.2478 21.1595 16.2933 21.1702 16.3392 21.1689C16.6848 21.1689 17.003 21.2544 17.1351 21.429C17.3566 21.7088 17.9702 22.602 17.9702 22.602L19.4381 23.1301L19.5328 21.4016L17.929 20.2872L16.1037 20.959V21.0445H16.1078L16.1088 21.0447Z" fill="#E5CC7C"/>
<path fill-rule="evenodd" clip-rule="evenodd" d="M15.8208 21.6855C15.8208 21.6855 16.0886 21.7049 16.4265 21.5805C16.7644 21.4561 17.3197 21.1883 17.5606 21.2933C17.8982 21.4369 17.8283 21.8875 18.1936 22.2917C18.4148 22.5403 18.8188 22.5326 19.0479 22.8006C19.277 23.0686 20.0653 22.9442 20.0653 22.9442L20.3643 24.557L19.1644 26.0951L18.772 28.0056H17.1494L15.6672 27.4176L14.9371 25.6512L15.3021 23.8648L15.8208 21.6855Z" fill="#D2C281"/>
<path fill-rule="evenodd" clip-rule="evenodd" d="M18.9594 21.7631C18.9996 21.7755 19.0414 21.782 19.0835 21.7825C19.0369 21.8214 18.9397 21.9067 18.9786 22.1281C19.0175 22.3496 19.1416 22.6291 19.0369 22.7998C19.1205 22.8912 19.1829 23 19.2195 23.1183C19.2855 23.3088 19.305 23.4834 19.7358 23.5108C19.6736 23.549 19.6163 23.5947 19.5651 23.6467C19.5651 23.6467 19.8641 23.9068 20.0156 24.1474C20.1708 24.1408 20.5824 24.0128 20.5824 24.0128L20.6679 24.0711L20.8504 23.9943C20.8504 23.9943 20.6797 23.9283 20.8038 23.5128C20.9203 23.1477 21.0253 23.1672 21.0342 23.1401C21.0432 23.1129 21.1198 22.7284 21.1198 22.573C21.1779 22.3713 21.2245 21.7577 21.2245 21.7577L21.1003 20.4024L20.4014 19.979L19.8331 19.4304L19.297 20.4401L18.944 20.7921L18.9169 21.6658L18.9594 21.7631Z" fill="#E2C270"/>
<path fill-rule="evenodd" clip-rule="evenodd" d="M20.6407 20.6292C20.6407 20.6292 20.7649 20.9825 20.8118 21.2544C20.8283 21.2015 20.8374 21.1466 20.8389 21.0913C20.8389 21.0913 20.9359 21.6273 20.9551 21.8488C20.994 21.8408 21.0319 21.8293 21.0406 21.868C21.0493 21.9066 21.1379 22.338 21.1174 22.5786C21.2791 22.3118 21.5029 22.0881 21.7697 21.9264C21.9251 21.8291 22.1076 21.7244 22.2981 21.7164C22.5971 21.7088 22.8144 21.9069 23.1718 21.9069C24.0338 21.9069 24.8146 21.2738 25.3893 21.0798C25.8125 20.9359 26.1775 20.8312 26.4338 20.598C26.5582 20.4933 26.7796 20.2603 26.9814 19.9144C27.2494 19.4536 27.5289 19.0525 27.8087 19.0021C27.6822 19.0253 27.5534 19.0344 27.4247 19.0292C27.4247 19.0292 27.5103 18.9437 27.6551 18.8272C27.8 18.7107 27.9736 18.5671 28.2219 18.5671C28.6648 18.5671 28.886 18.6329 29.1346 18.6329C29.3831 18.6252 29.5268 18.5671 29.5268 18.5671C29.5268 18.5671 29.7871 18.7496 30.3734 18.7496C30.9599 18.7573 31.352 18.8078 31.659 18.8352C31.9659 18.8625 32.9948 18.7496 33.29 18.7584C33.4824 18.7658 33.6714 18.812 33.8455 18.8943L32.8939 16.1295L29.4758 13.142L27.4409 14.5827L24.3105 17.7128L21.2815 18.8352L20.6484 19.5458V20.6292H20.6407Z" fill="#CCB360"/>
<path fill-rule="evenodd" clip-rule="evenodd" d="M27.437 19.0446C27.437 19.0446 27.5225 18.9594 27.6659 18.8429C27.8093 18.7264 27.9846 18.5825 28.2329 18.5825C28.6756 18.5825 28.897 18.6486 29.1456 18.6486C29.3942 18.6409 29.5378 18.5825 29.5378 18.5825C29.5378 18.5825 29.7984 18.7648 30.3844 18.7648C30.9709 18.7725 31.3631 18.8229 31.67 18.8501C31.977 18.8772 33.0058 18.7648 33.301 18.7733C33.4934 18.7805 33.6823 18.8267 33.8563 18.9092L33.4252 17.6625L32.9244 16.7112L31.4952 15.146C31.4952 15.146 29.78 14.1363 29.7669 14.1286C29.7592 14.121 29.1727 13.9656 29.1727 13.9656L27.6193 14.9054L26.2098 18.5521L26.1826 19.3201L27.095 19.7512C27.3241 19.3672 27.5768 19.06 27.8136 19.0211C27.5998 19.0444 27.4368 19.0444 27.4368 19.0444L27.437 19.0446Z" fill="#D5B457"/>
<path fill-rule="evenodd" clip-rule="evenodd" d="M27.4176 19.3049C27.2817 19.3126 27.1693 19.2855 27.138 19.1884C27.0216 18.8623 26.9284 18.8157 26.8308 18.8157C26.7333 18.8157 26.6017 19.0254 26.5236 19.0446C26.4456 19.0638 26.3529 18.8039 26.3529 18.8039L26.2674 18.765C26.2674 18.765 25.7664 19.0912 25.4131 19.4757C25.0598 19.8602 24.481 20.5127 24.2209 20.629C23.9608 20.7452 23.0674 20.7843 22.7617 20.8504C22.4561 20.9164 22.1171 21.1379 22.0705 21.1883C22.024 21.2387 22.2067 21.293 22.2339 21.3434C22.261 21.39 21.9346 21.3706 21.9075 21.4202C21.8883 21.4592 21.9843 21.6803 22.0319 21.793C22.1152 21.7516 22.2066 21.729 22.2997 21.7269C22.5987 21.7193 22.8163 21.9174 23.1734 21.9174C24.0356 21.9174 24.8161 21.2843 25.3909 21.09C25.8143 20.9464 26.1793 20.8414 26.4356 20.6085C26.5597 20.5038 26.7812 20.2706 26.9832 19.925C27.1306 19.6882 27.2745 19.4667 27.4184 19.3036L27.4176 19.3049Z" fill="#D2B257"/>
<path fill-rule="evenodd" clip-rule="evenodd" d="M15.0528 38.5244C15.0528 38.5244 14.976 38.2369 14.2643 37.4953C14.0623 37.2856 13.9382 37.1113 13.8022 36.9866C13.4643 36.6679 13.2662 36.5826 13.0255 36.4001C12.4974 36.0079 11.9227 36.0079 11.4801 35.5264C11.0374 35.0448 10.5216 34.1248 10.1632 33.1845C9.80993 32.2447 9.71265 31.9457 9.71265 31.9185C9.71265 31.8914 9.80993 31.7089 9.93409 31.736C10.0582 31.7632 10.0582 32.0038 10.0895 32.0622C10.1513 32.1574 10.2215 32.247 10.2991 32.3299C10.4817 32.5399 10.7418 32.7907 10.8739 33.165C10.8467 32.8466 10.7379 32.4933 10.7379 32.4933C10.7379 32.4933 11.4214 32.9244 12.0038 33.3747C12.5903 33.8253 12.831 33.9806 13.0022 34.2679C13.1735 34.5551 13.577 35.3126 13.7702 35.5341C13.9635 35.7555 16.6118 36.5903 16.6118 36.5903L17.8716 37.5296L18.497 38.9005L18.0076 39.6685L17.0678 39.8705L15.5415 39.187L15.0528 38.5242V38.5244Z" fill="#D2B159"/>
<path fill-rule="evenodd" clip-rule="evenodd" d="M11.6621 33.8019C11.6621 33.8019 11.9806 34.3106 12.7573 34.7921C13.4564 35.2156 14.5631 35.6001 15.5497 35.8292C16.1165 35.9651 16.6835 36.0698 17.1922 36.0778C18.5631 36.097 19.5067 35.705 20.6759 35.5768C21.309 35.5107 22.0857 35.4603 22.8933 35.2696C23.9301 35.021 24.5438 34.7412 25.3788 34.348C25.9845 34.0684 26.5401 33.8588 26.9904 33.5907C27.6235 33.218 28.0855 32.8025 28.6216 32.6783C28.5555 32.8609 28.4857 33.187 27.9575 33.5249C28.2371 33.517 28.6216 33.4978 28.6216 33.4978C28.6216 33.4978 28.2489 33.719 27.5925 34.2161C27.1885 34.5233 26.6527 35.0433 26.1051 35.3889C25.7516 35.6103 25.3671 35.7729 25.1147 35.9055C24.5003 36.2434 24.2524 36.4142 23.8487 36.8271C23.9923 36.8194 24.0041 36.8271 24.0041 36.8271C24.0041 36.8271 23.4952 36.8931 23.1304 37.0872C23.0536 37.0872 22.9205 37.06 22.6875 37.1261C22.505 37.1842 22.2641 37.3166 22.0158 37.3862C21.6622 37.4911 21.546 37.4446 21.546 37.4446L21.6041 37.561C21.6041 37.561 21.1433 37.5531 20.9897 37.5687C21.0169 37.5764 21.0092 37.5882 21.0092 37.5882C20.9822 37.5927 20.9562 37.6019 20.9324 37.6153C20.8585 37.6632 20.7772 37.6986 20.6917 37.72C20.6451 37.7277 20.6062 37.7277 20.5479 37.7395C20.5673 37.7861 20.7189 38.0467 20.7888 38.2003C20.7307 38.2392 19.8567 38.8994 19.8567 38.8994C19.8838 38.9421 19.9059 38.9877 19.9227 39.0353C19.9499 39.1206 19.9616 39.245 19.9888 39.3031C20.0546 39.4196 20.0935 39.439 20.0935 39.439C20.0935 39.439 19.9888 39.4585 19.806 39.5051C19.6508 39.544 19.4604 39.6098 19.1916 39.6487C19.1091 39.6594 19.0261 39.6659 18.943 39.6682C18.9819 39.7537 19.1527 40.0798 18.838 40.4564C18.5234 40.833 18.4264 40.8878 18.3294 41.1284C18.2805 41.0915 18.2285 41.0589 18.174 41.0311C18.0693 40.9845 17.9254 40.9149 17.875 40.8214C17.8456 40.9459 17.8066 41.068 17.7585 41.1865C17.6615 41.4466 17.5179 41.7031 17.4907 41.8972C17.3858 41.7807 17.1917 41.5516 16.9237 41.5982C16.6556 41.6447 16.4421 42.0098 16.3955 42.1148C16.3955 42.0487 16.349 41.9983 16.3374 42.0758C16.3295 42.1614 16.182 43.0543 15.3587 43.7767C15.3511 43.5942 15.3511 43.1902 15.3316 43.0584C15.2548 43.1352 15.1609 43.2486 14.6015 43.4895C14.0539 43.7301 14.1407 43.971 14.1407 43.971C14.1407 43.971 14.0941 43.587 14.3893 43.1825C14.6883 42.7788 14.8708 42.5884 14.8708 42.5574C14.866 42.5258 14.8525 42.4962 14.8319 42.4719C14.793 42.433 14.7154 42.3864 14.7154 42.3554C14.762 42.3362 15.2241 42.1148 15.197 41.6563C15.1698 41.2449 14.9952 41.0311 14.8708 40.8798C14.8516 40.8604 15.0536 40.7167 15.0262 40.6702C15.0067 40.643 14.7584 40.4602 14.7272 40.363C14.7345 40.3049 14.7476 40.2477 14.7661 40.1922C14.7932 40.1067 14.8127 40.0483 14.805 39.9902C14.7856 39.8932 14.6806 39.6252 14.6496 39.598C14.6768 39.6057 14.8708 39.598 14.8708 39.598C14.8708 39.598 14.7157 39.3494 14.6883 39.233C14.6609 39.1165 14.6028 38.8095 14.5718 38.7514C14.6379 38.7591 14.8009 38.7706 14.8009 38.7514C14.8089 38.6931 14.6573 38.596 14.7241 38.521C14.7707 38.5287 14.8601 38.5676 14.9453 38.6764C14.8987 38.552 14.8211 38.3114 14.6578 38.2143C14.7346 38.1872 14.9957 38.1171 15.2249 38.253C15.454 38.3889 15.5321 38.5791 15.5321 38.5791C15.5321 38.5791 15.668 38.6841 15.8779 38.8395C16.1186 39.0297 16.4252 39.3003 16.9147 39.4918C17.0197 39.5502 17.2875 39.5502 17.4818 39.5112C17.5664 39.4911 17.6475 39.4584 17.7224 39.4142C17.7495 39.3983 17.7781 39.3852 17.8079 39.3753C17.7662 39.2915 17.7181 39.211 17.6643 39.1344C17.7303 39.1344 17.8079 39.1423 17.8079 39.1423C17.8079 39.1423 17.8545 39.0374 17.6448 38.8351C17.6914 38.7886 17.7498 38.7583 17.7498 38.6798C17.6837 38.6721 17.5673 38.575 17.5401 38.5361C17.5788 38.509 17.6371 38.4197 17.7032 38.3925C17.6448 38.3459 17.5012 38.1516 17.4352 38.1324C17.4983 38.109 17.5593 38.0804 17.6177 38.0469C17.6177 38.0469 17.2915 37.9614 17.1866 37.8915C17.0816 37.8147 16.9265 37.6819 16.8333 37.643C16.736 37.604 16.5653 37.5848 16.4954 37.507C16.5612 37.5265 16.6661 37.507 16.744 37.507C16.8021 37.507 16.8295 37.5147 16.8487 37.5147C16.841 37.4876 16.841 37.4292 16.9925 37.41C17.0654 37.399 17.1362 37.3767 17.2022 37.3439C17.2022 37.3439 17.0583 37.3363 16.895 37.1809C16.7317 37.0255 16.596 36.9013 16.5028 36.8819C16.4058 36.8624 16.2233 36.9479 16.1106 36.94C15.9552 36.9208 15.8892 36.843 15.8892 36.843C15.8892 36.843 15.3728 36.8895 14.2272 36.1907C13.2368 35.5847 12.8057 35.0489 12.8057 35.0489C12.713 35.0153 12.6234 34.9736 12.5379 34.9245C12.1651 34.7304 11.6485 34.3265 11.6642 33.7981L11.6621 33.8019Z" fill="#C2A44D"/>
<path fill-rule="evenodd" clip-rule="evenodd" d="M25.9494 10.4932C26.0392 10.5224 26.119 10.5762 26.1798 10.6486C26.3623 10.8582 26.4788 11.2543 26.0633 11.6777C26.2264 11.7358 26.2937 11.7545 26.436 11.7358C26.2924 11.9068 25.9663 12.2719 25.9468 12.5903C25.9273 12.8504 26.0904 12.9283 26.0904 12.9283C26.0904 12.9283 25.8418 13.2155 25.8303 13.6963C25.9477 13.5639 26.0762 13.4418 26.2143 13.3312C26.5018 13.1021 26.8978 12.842 27.1659 12.6789C27.1622 12.7473 27.1714 12.8157 27.193 12.8806C27.193 12.8806 27.6938 12.469 28.1146 12.6518C28.3048 12.7373 28.2193 13.0051 28.2193 13.0051C28.2193 13.0051 28.4797 12.908 28.6622 13.0906C28.8447 13.2731 29.1028 13.7439 29.2351 13.9264C29.2933 14.0119 29.4448 14.175 29.5999 14.4274C29.8119 14.7808 29.9889 15.154 30.1283 15.5418C30.136 15.3398 30.1864 15.0254 30.7614 15.2233C31.3361 15.4253 31.9884 15.8487 32.536 16.6825C33.0836 17.5163 33.2193 18.4576 33.495 18.816C33.7746 19.1616 34.0621 19.7363 34.0815 19.9772C34.101 20.2181 33.996 20.9946 34.5707 23.0956C34.7338 22.4433 34.9824 20.9946 34.9824 20.9946L35.1183 19.7169L35.2737 15.7635L31.1454 12.3338L27.9183 9.99194L25.8173 10.1939L25.9491 10.4929L25.9494 10.4932Z" fill="#CAA13E"/>
<path fill-rule="evenodd" clip-rule="evenodd" d="M33.6195 16.3766C33.6195 16.3766 33.5611 15.9926 32.5903 15.3398C31.6193 14.6952 30.8621 14.6952 30.1632 14.1476C29.6271 13.7165 29.068 12.726 28.704 12.3999C28.3505 12.0776 28.2924 11.1455 28.2924 11.1455L29.4845 10.1471L31.2576 7.58427L32.7565 5.93384L33.4748 6.93224L34.4732 8.10497L35.0285 10.4584L35.2305 13.9031L33.6177 16.3768L33.6195 16.3766Z" fill="#B59544"/>
<path fill-rule="evenodd" clip-rule="evenodd" d="M34.8196 20.5057C34.849 19.9833 34.7845 19.4598 34.6291 18.9602C34.3731 18.164 33.8137 16.7504 33.5539 16.221C33.4489 15.6345 33.5268 15.5879 33.6394 15.5219C33.7521 15.4558 34.1755 15.2147 34.4074 14.3686C34.6394 13.5225 35.359 13.4948 35.359 13.4948L35.8016 13.1687L36.4736 14.8501L37.0598 16.3687L37.2424 17.5299L37.3783 18.5201L37.0598 20.6134L35.4872 22.0347L34.8193 20.5057H34.8196Z" fill="#C89D3A"/>
<path fill-rule="evenodd" clip-rule="evenodd" d="M12.874 43.8371V43.7941C12.9067 43.7737 12.9356 43.7477 12.9593 43.7173C12.9864 43.6784 13.0061 43.6318 13.0253 43.6203C13.0642 43.6009 13.2468 43.5435 13.3438 43.5619C13.4408 43.5804 13.6973 43.6861 13.8333 43.6784C14.1128 43.6707 14.439 43.457 14.9556 43.5543C15.7323 43.6979 15.9148 44.226 16.3654 44.525C16.6726 44.7349 16.9905 44.6415 17.0371 44.6415H17.1418C17.1613 44.6415 17.3049 44.4784 17.3827 44.4864C17.5381 44.494 17.5534 44.6223 17.6505 44.63C17.8796 44.6571 18.3225 44.5135 18.5439 44.5719C18.6096 44.5924 18.6693 44.6286 18.718 44.6772C18.7666 44.7258 18.8028 44.7855 18.8235 44.8512C18.8701 44.9948 18.8311 45.1773 18.7185 45.2823C18.4779 45.5035 18.2487 45.7134 18.2022 45.8967C18.2614 45.9419 18.3183 45.9901 18.3726 46.0411C16.4512 45.5515 14.6024 44.8113 12.874 43.8394V43.8371Z" fill="#CEB052"/>
<path fill-rule="evenodd" clip-rule="evenodd" d="M33.5534 36.0779C33.5534 36.0779 34.1591 35.2702 34.369 34.87C34.5787 34.4576 33.705 29.2352 33.705 29.2352L35.4604 23.4839L35.4135 21.6121C35.4135 21.6121 35.499 19.8838 35.701 19.1342C35.9419 19.5653 36.6915 20.0858 36.8546 20.3615C36.9314 19.8331 37.1922 18.7187 37.1536 17.5304C37.2972 17.7516 37.6428 19.977 37.6428 19.977L37.9884 21.4759L38.439 23.0682L38.94 24.7499L39.239 25.9111L39.4097 26.1906L39.5536 26.6798L39.6895 27.2082L40.0817 28.447L40.3121 29.4643L40.4947 31.3091C40.5344 31.4503 40.563 31.5945 40.5802 31.7402C40.5879 31.9422 40.553 32.0587 40.553 32.0937C40.553 32.1288 40.6191 32.5363 40.592 32.8433C40.553 33.1505 40.553 33.3909 40.3121 33.6113C40.0712 33.8317 39.9199 35.1491 39.9199 35.1491L39.4888 34.8619C39.4888 34.8619 39.5743 34.4694 39.3724 34.1123C39.1704 33.7552 38.7782 33.6812 38.5567 33.7395C38.3355 33.7861 37.8929 33.8558 37.749 33.9802C37.6131 34.1043 37.2793 34.4889 36.9723 34.6637C36.5883 34.8941 35.9627 34.9123 35.6288 34.9899C35.2909 35.0667 34.9182 35.2971 34.5257 35.5646C34.218 35.7638 33.8931 35.9351 33.5549 36.0766V36.0766L33.5534 36.0779Z" fill="#CCA847"/>
<path fill-rule="evenodd" clip-rule="evenodd" d="M33.5534 44.5633C33.5534 44.5633 33.579 44.5799 33.6284 44.607C36.3875 43.3144 38.8596 41.4821 40.8988 39.2182C40.8765 38.4323 40.8476 37.6267 40.8159 37.3282C40.7501 36.6951 40.7967 36.0505 40.7772 35.6778C40.7578 35.305 40.5481 33.7864 40.4511 33.3942C40.3461 33.002 40.1439 32.8077 40.1131 32.8077C40.086 32.8157 39.9227 33.5458 39.9227 33.7293C39.9227 33.9129 39.8838 34.3547 39.8838 34.4674C39.8566 34.4595 39.8451 34.3906 39.8451 34.3624C39.8062 34.4595 39.7596 34.6305 39.7402 34.6499C39.7207 34.6694 39.7673 34.4868 39.7402 34.4479C39.713 34.409 39.6634 34.4285 39.6741 34.3314C39.6787 34.2739 39.6878 34.2168 39.7012 34.1607C39.7012 34.1607 39.5848 34.3315 39.4995 34.7664C39.414 35.1975 39.414 35.2093 39.383 35.2479C39.3559 35.2948 39.2005 35.4499 39.1926 35.5083C39.1849 35.613 39.3364 35.7179 39.348 35.7761C39.3556 35.8733 39.212 36.3236 39.1654 36.5441C39.1188 36.7645 39.1383 37.1963 39.0886 37.4178C39.0497 37.6198 39.0118 37.7363 38.879 37.8215C38.976 37.841 39.0692 37.8681 39.0692 37.8681C39.0692 37.8681 39.2051 38.4428 38.8595 38.9323C38.7354 39.103 38.7044 39.1809 38.5723 39.3362C38.3119 39.6235 38.1099 39.9506 38.0905 40.1634C38.0771 40.1006 38.068 40.037 38.0634 39.9729C38.0634 39.9729 37.6596 40.4429 37.4886 40.711C37.2675 41.0566 36.9605 41.0371 36.8742 41.1226C36.788 41.2081 36.7693 41.3633 36.7974 41.4877C36.7206 41.5069 36.5763 41.5343 36.479 41.8333C36.4324 41.9884 36.3159 42.1405 36.1334 42.2449C35.9508 42.3494 35.7294 42.3809 35.6168 42.408C35.7138 42.4351 35.7527 42.4351 35.7993 42.4661C35.7412 42.5631 35.4731 42.7147 35.1741 42.909C34.8751 43.0915 34.7313 43.3593 34.6575 43.5341C34.5807 43.6972 34.4673 43.8022 34.2848 43.8216C34.3616 43.8682 34.4753 43.9768 34.5334 44.0118C34.4479 44.0313 34.303 44.0313 34.0442 44.2527C33.7723 44.478 33.6791 44.5441 33.5547 44.5635L33.5534 44.5633Z" fill="#C39D3C"/>
<path fill-rule="evenodd" clip-rule="evenodd" d="M28.1498 46.3628C28.2985 46.2586 28.4595 46.1732 28.6293 46.1086C29.235 45.868 29.8757 45.8214 30.1281 45.7438C30.369 45.667 30.5593 45.561 30.8583 45.5029C30.8503 45.571 30.8437 45.635 30.8365 45.6954C29.955 45.9726 29.0573 46.1955 28.1485 46.3628H28.1498Z" fill="#D2BA6B"/>
<path fill-rule="evenodd" clip-rule="evenodd" d="M39.3216 30.4311C39.3216 30.4311 39.1974 31.1028 38.976 31.5262C38.7545 31.9497 38.5152 32.5359 38.5152 32.5359C38.5166 32.4038 38.5322 32.2722 38.5618 32.1435C38.2822 32.3065 37.6025 32.699 37.4098 32.8736C37.2272 33.0366 36.9203 33.3241 36.8427 33.4601C37.0252 32.9243 37.2155 32.4427 37.2467 32.2213C36.9671 32.4233 35.662 33.499 34.9826 34.2096L32.866 35.9223C32.6218 36.054 32.3702 36.1718 32.1126 36.275C31.7478 36.4302 31.3167 36.5623 30.9982 36.6867C31.0837 36.4576 31.2194 36.2553 31.4099 36.0613C31.6119 35.8711 32.2176 35.2147 32.3108 34.9093C32.3963 34.5908 32.4157 34.4006 32.3031 34.1326C32.1981 34.1597 31.9575 34.1715 31.7944 34.2181C31.6313 34.2647 31.4565 34.4393 31.4565 34.4393C31.4565 34.4393 31.5806 33.7286 31.8487 33.0569C31.6467 33.0645 31.3011 33.1227 31.3011 33.1227C31.3011 33.1227 31.7826 32.315 32.6067 31.752C32.3543 31.8057 32.1074 31.8824 31.8689 31.9809C31.3874 32.1829 30.8592 32.4819 30.467 32.645C30.6882 32.3378 32.2416 30.1208 33.166 28.0546C34.0876 25.9926 34.432 25.4644 34.634 24.3578C34.7387 23.8102 34.7108 23.001 34.7387 22.2762C34.7658 21.5576 34.8551 20.913 34.797 20.4819C35.0377 20.7809 35.9388 21.6237 35.9698 23.5073C35.9969 25.3907 35.1078 27.9346 34.1639 29.3052C34.3943 29.3712 34.9913 29.4491 35.6047 28.3836C36.2181 27.3181 36.2107 27.0207 36.4321 26.5778C36.4592 26.7992 36.4513 26.8768 36.4513 26.8768C36.4513 26.8768 37.3447 25.7934 37.7679 24.4302C37.8534 25.0167 38.1058 25.5333 37.7095 26.609C37.3563 27.5798 36.8942 27.8168 36.8942 27.8168C36.8942 27.8168 37.1233 27.7779 37.461 27.5759C37.5193 27.7195 37.5078 27.8831 37.6048 27.941C37.7019 27.9988 37.834 28.0964 37.8534 28.1896C37.9581 28.0342 38.1212 27.836 38.1719 27.6886C38.133 27.9958 38.1058 29.339 38.2487 30.0225C38.5479 29.9954 38.8546 29.9759 39.0643 29.436C38.9207 29.9644 38.9207 30.2826 39.0177 30.7332C39.1769 30.6246 39.3205 30.4303 39.3205 30.4303L39.3216 30.4311Z" fill="#C0993A"/>
<path fill-rule="evenodd" clip-rule="evenodd" d="M29.2311 9.02535C29.2311 9.02535 28.9321 9.14951 28.4234 9.14951C27.9808 9.14951 28.1049 8.97876 27.4137 8.97876C26.3498 8.97876 22.6332 9.59316 21.9806 9.58446C21.5572 9.57678 23.4096 9.76698 23.4096 9.76698L28.1438 9.83303L29.0951 9.75623L29.4487 9.03687L29.2311 9.02535Z" fill="#A88F33"/>
<path fill-rule="evenodd" clip-rule="evenodd" d="M16.9554 18.2797C16.9554 18.2797 16.3494 18.7418 16.0932 19.0953C15.8369 19.4489 15.701 19.6816 15.4097 19.9691C15.4781 19.9717 15.5464 19.9625 15.6117 19.9419C15.6117 19.9419 15.6117 20.0187 15.5651 20.039C15.6053 20.0345 15.6461 20.039 15.6844 20.0523C15.7226 20.0656 15.7574 20.0873 15.7862 20.1158C15.7007 20.1623 15.4678 20.3956 15.6503 20.6713C15.7862 20.8809 16.0737 20.9001 16.0737 20.9001C16.0737 20.9001 16.0077 21.0906 16.2834 21.0711C16.8776 21.044 17.5416 20.7837 17.8483 20.8497C18.1555 20.9265 18.3301 20.9547 18.5475 21.3315C18.7779 21.7042 18.9786 21.7626 18.9786 21.7626C18.9786 21.7626 19.1145 21.4167 19.0835 20.9004C19.195 20.6221 19.2568 20.3263 19.2661 20.0267L19.0641 18.5393L18.1827 17.4247L17.0409 18.0578L16.9554 18.279V18.2797Z" fill="#E3C571"/>
<path fill-rule="evenodd" clip-rule="evenodd" d="M18.0388 18.0582C18.0388 18.0582 18.1243 18.2602 18.4816 18.2794C18.4427 18.3649 18.4427 18.3767 18.4545 18.4425C18.4622 18.5085 18.4737 18.6055 18.4737 18.6055C18.513 18.5865 18.5486 18.5605 18.5787 18.5287C18.5981 18.6142 18.5592 18.7499 18.5787 18.8472C18.5907 18.9064 18.6102 18.9637 18.6368 19.018C18.6424 19.0047 18.6489 18.9918 18.6562 18.9793C18.6639 18.9598 18.733 19.189 18.9243 19.3633C18.9241 19.3365 18.9307 19.3101 18.9435 19.2865C18.9464 19.3352 18.9625 19.3822 18.9901 19.4224C18.9757 19.4156 18.9627 19.4064 18.9514 19.3953C18.9514 19.3953 18.9706 20.0097 19.0756 20.3274C19.0931 20.3069 19.1087 20.2848 19.1221 20.2613C19.1221 20.2421 19.1145 20.4324 19.095 20.5685C19.0679 20.7045 19.0873 20.8947 19.0873 20.8947C19.1573 20.8396 19.2343 20.7939 19.3162 20.7588C19.4327 20.7119 19.6234 20.5683 19.7396 20.2498C19.807 20.0695 19.859 19.8837 19.895 19.6946C19.9326 19.7668 19.9585 19.8446 19.9718 19.925C19.9797 20.022 20.1623 19.9716 20.1623 19.9716L20.2012 19.5481L20.4316 18.5889L20.6413 17.9947L21.6509 16.4221L23.4752 15.0172L25.0675 15.3822L26.411 13.557L24.0965 12.1666L21.9062 12.3957L19.9183 15.149L18.3262 17.6463L18.0388 18.058V18.0582Z" fill="#D8B65B"/>
<path fill-rule="evenodd" clip-rule="evenodd" d="M29.5106 14.0738C29.5106 14.0738 29.3747 14.1009 28.9825 14.3042C28.5903 14.5075 28.3185 14.572 28.1669 14.871C28.0154 15.17 28.0038 15.407 28.0038 15.407C28.0038 15.407 28.2719 15.2906 28.4273 15.2517C28.5903 15.213 28.7729 15.2245 28.7534 15.2906C28.7347 15.3359 28.7088 15.3778 28.6766 15.4147C28.6766 15.4147 28.9838 15.407 28.9756 15.5586C28.9674 15.7101 28.9175 15.8771 28.8594 15.9508C28.801 16.0276 28.5604 16.1413 28.5332 16.2306C28.4672 16.4131 28.5604 16.4208 28.5253 16.5683C28.4982 16.7121 28.3702 16.9917 27.9506 17.4809C27.5195 17.9704 27.3362 18.316 27.3362 18.316C27.3362 18.316 27.1265 17.9238 27.0177 17.5859C26.9409 17.6245 26.5285 17.8536 26.5285 17.8536L25.5731 14.5256L25.5923 14.3042C25.5923 14.3042 25.6778 14.1995 25.6973 14.0052C25.5537 13.9586 25.5342 13.9197 25.3437 13.7374C25.1533 13.5551 24.9981 13.3334 24.6799 13.1819C24.6334 13.0964 24.575 12.9802 24.342 12.9333C24.1091 12.8865 23.9693 12.8481 23.9693 12.8481C23.9693 12.8481 24.0934 12.8012 24.1518 12.7042C24.0079 12.7236 23.8917 12.7702 23.5771 12.7626C23.2586 12.7546 23.2236 12.7431 23.049 12.7702C22.8744 12.7974 22.665 12.8752 22.5869 12.6072C22.5014 12.5411 22.3189 12.5995 22.1635 12.8283C22.0081 13.0572 21.9538 13.24 21.6548 13.3293C21.6338 13.4611 21.5876 13.5877 21.5189 13.7021C21.4334 13.8459 21.2974 13.9896 21.1149 14.2031C20.8274 14.541 20.874 15.0963 20.4158 15.5197C19.9537 15.9429 20.4926 14.3467 20.4926 14.3467L21.2304 12.5803L23.3313 10.5259L26.5935 10.3047L26.912 11.9943L28.5043 12.5419L29.5101 14.0758L29.5106 14.0738Z" fill="#D3AE4D"/>
<path fill-rule="evenodd" clip-rule="evenodd" d="M30.0273 14.4466L28.6564 12.47L27.6972 11.732C27.6972 11.732 27.0137 10.474 26.9671 10.4351C26.9282 10.4079 26.2836 10.338 25.872 10.3109L25.9488 10.5011C26.0386 10.5303 26.1184 10.5841 26.1791 10.6565C26.3617 10.8662 26.4782 11.2622 26.0627 11.6856C26.2257 11.7437 26.2931 11.7624 26.4354 11.7437C26.2918 11.9147 25.9656 12.2798 25.9462 12.5983C25.9267 12.8584 26.0898 12.9359 26.0898 12.9359C26.0898 12.9359 25.8412 13.2234 25.8297 13.7039C25.9471 13.5715 26.0756 13.4494 26.2137 13.3389C26.5012 13.1085 26.8972 12.8494 27.1652 12.6863C27.1616 12.7548 27.1708 12.8233 27.1924 12.8883C27.1924 12.8883 27.6931 12.4767 28.114 12.6592C28.3042 12.7447 28.2187 13.0127 28.2187 13.0127C28.2187 13.0127 28.479 12.9157 28.6615 13.0982C28.8441 13.2808 29.1042 13.7505 29.2363 13.9333C29.2944 14.0188 29.4459 14.1819 29.6011 14.434C29.813 14.7875 29.99 15.1608 30.1294 15.5486C30.1371 15.3933 30.1683 15.1759 30.4366 15.1759L30.0288 14.4458L30.0273 14.4466Z" fill="#CAA13E"/>
<path fill-rule="evenodd" clip-rule="evenodd" d="M9.47586 20.0622C9.47586 20.0622 9.37884 19.8213 9.47586 19.3516C9.57289 18.8818 9.72444 18.6604 9.77487 17.9692C9.8253 17.278 10.2759 16.4158 10.2759 16.4158L11.5223 15.849L12.404 16.0896L12.6641 17.2703L11.5495 17.8847C11.5495 17.8847 11.4914 18.1448 11.1767 18.3545C10.8621 18.5641 10.4272 18.7272 10.3225 18.941C10.2599 19.0719 10.2142 19.2102 10.1865 19.3526C10.1865 19.3526 9.86806 19.2866 9.67785 19.4962C9.47586 19.71 9.48354 19.9002 9.47586 20.0633V20.0622Z" fill="#F4EFC8"/>
<path fill-rule="evenodd" clip-rule="evenodd" d="M11.9923 19.7476C11.9923 19.7476 11.8873 19.8136 11.8098 19.978C11.733 19.8538 11.5494 19.1158 11.5417 18.4517C11.5341 17.7876 11.4944 17.623 11.648 17.3942C11.8016 17.1653 12.4039 16.9242 12.3184 16.512C12.2329 16.1198 11.8756 15.9567 11.4368 16.0694C11.1296 16.1462 10.901 16.7995 10.5825 17.1256C10.3416 17.3742 10.0544 17.3353 9.97681 17.4712C9.87185 17.6538 9.96887 17.8363 9.9379 17.9528C9.92996 17.9917 9.83293 18.2013 9.65809 18.4538C9.30481 18.9624 8.70679 19.681 8.62897 20.3256C8.6561 19.9606 8.6369 19.9529 8.73393 19.5489L8.67556 19.4519L9.05956 18.1937L9.30814 17.1569L9.86365 15.4207L10.8421 13.6461L11.7936 12.5819L12.7838 12.648L12.9003 14.1353L13.4674 16.9277L14.6596 18.3956L12.7488 19.6815L11.9915 19.7476H11.9923Z" fill="#EBCC73"/>
<path fill-rule="evenodd" clip-rule="evenodd" d="M12.5865 20.2753C12.5865 20.2753 12.4234 20.3142 12.3651 20.2832C12.3067 20.2522 12.2489 20.2172 12.2681 20.1783C12.2873 20.1393 12.3922 20.0735 12.3922 20.0423C12.3944 20.0141 12.3854 19.9861 12.3673 19.9644C12.3492 19.9426 12.3233 19.9288 12.2952 19.9258C12.2058 19.9143 12.1787 19.9724 12.1787 19.9724C12.1787 19.9724 12.0932 19.9066 12.0236 19.8956C12.0648 19.8906 12.1062 19.8879 12.1477 19.8877C12.0404 19.8391 11.9266 19.8064 11.8098 19.7907C11.9068 19.7326 12.0973 19.5615 12.2215 19.5615C12.3456 19.5615 12.4234 19.5423 12.404 19.4763C12.3845 19.4102 12.2875 19.3132 12.1828 19.2743C12.2215 19.2277 12.2489 19.1578 12.1557 18.9671C12.0584 18.7769 12.0973 18.6486 12.1285 18.6023C12.1557 18.5439 12.2527 18.4392 12.2993 18.3732C12.3459 18.3071 12.3848 18.2178 12.4624 18.1712C12.5013 18.1441 12.6254 18.0944 12.7498 18.047C12.8858 18.0004 12.9984 17.9421 13.076 18.0004C13.1615 18.0585 13.1226 18.1364 13.1226 18.1364C13.1226 18.1364 13.3906 18.0391 13.6313 18.1635C13.8721 18.2797 14.4586 18.3537 14.4586 18.3537L14.6688 18.7771L13.2785 19.9694L12.7038 20.2568L12.5873 20.276L12.5865 20.2753Z" fill="#E5C66B"/>
<path fill-rule="evenodd" clip-rule="evenodd" d="M14.5165 18.3262C14.5165 18.3262 14.0854 18.6137 13.9884 18.7184C14.0465 18.7263 14.1435 18.7653 14.1046 18.8234C14.058 18.8815 13.7784 19.0835 13.623 19.2739C13.46 19.4641 13.3046 19.705 13.2503 19.8215C13.1922 19.9262 12.7493 20.2332 12.598 20.2718C12.9165 20.2718 13.5573 19.8796 13.7979 19.8796C13.7902 19.9961 13.8639 20.1282 13.9999 20.1397C14.1358 20.1512 14.528 20.2252 15.0561 19.8991C15.5843 19.5806 15.4097 19.3436 15.6309 19.1884C16.0543 18.9086 16.225 18.66 16.458 18.5049C16.691 18.3498 16.8115 18.3144 16.8115 18.3144C16.8115 18.3144 16.8192 18.198 16.8883 18.2097C16.9072 18.2119 16.9252 18.2192 16.9403 18.2309C16.9554 18.2425 16.967 18.258 16.9738 18.2758C16.9738 18.2758 17.3778 17.9883 17.8954 17.9107C17.8834 17.9053 17.8737 17.8957 17.8683 17.8836C17.8683 17.8836 17.907 17.8641 17.9149 17.8447C17.9149 17.8447 17.942 17.8058 17.9615 17.8252C17.9809 17.8447 18.0081 17.9883 18.047 18.0467C18.1325 18.0078 18.2956 17.6427 18.2956 17.6427L18.688 16.5204V15.4951L18.3808 15.5535L16.0768 16.5319L14.6785 17.9806L14.5155 18.3262H14.5165Z" fill="#E6BD62"/>
<path fill-rule="evenodd" clip-rule="evenodd" d="M21.1494 13.2972C21.2741 13.267 21.3935 13.2185 21.504 13.1534C21.4574 13.2778 21.4574 13.4137 21.2554 13.7089C21.0534 14.004 21.0457 14.0468 20.8827 14.3535C20.7196 14.672 20.7002 15.1302 20.5448 15.3319C20.6144 15.2981 20.6891 15.2759 20.7659 15.2661C20.7659 15.2661 20.6108 15.4021 20.5448 15.5457C20.4787 15.6893 20.3622 15.9883 20.075 16.1711C19.7878 16.3539 19.4225 16.4701 19.0303 16.9012C18.6378 17.3244 18.2341 17.8605 18.0319 18.0532C18.1368 17.8707 18.2804 17.5056 18.3193 17.265C18.3583 17.0244 18.3114 16.7366 18.3775 16.4184C18.4435 16.1002 18.4435 15.8708 18.7615 15.3153C19.0794 14.7598 19.6237 12.8298 19.6237 12.8298L20.7964 12.457L21.1499 13.2959L21.1494 13.2972Z" fill="#B6933F"/>
<path fill-rule="evenodd" clip-rule="evenodd" d="M20.3029 12.5865C20.3029 12.5865 19.9496 13.0952 19.8526 13.5458C19.7555 13.9963 19.8446 13.9574 19.7865 14.1789C19.7517 14.3139 19.7517 14.4555 19.7865 14.5905C19.9089 14.3934 20.0764 14.2282 20.2752 14.1087C20.6093 13.907 20.8812 13.7631 21.0432 13.5924C21.2063 13.4098 21.3422 13.1108 21.6955 12.8817C21.5519 12.8622 21.3499 12.7962 21.3115 12.8049C21.4554 12.6418 21.8862 12.3933 22.3212 12.0942C22.7523 11.787 22.7251 11.6631 23.4243 11.3565C23.1951 11.3954 23.0863 11.337 22.8959 11.3565C22.9727 11.1934 23.2415 11.1156 23.5103 10.8478C23.7791 10.58 23.3395 10.1837 23.3395 10.1837L21.2915 11.4225L20.3013 12.5876L20.3029 12.5865Z" fill="#C49937"/>
<path fill-rule="evenodd" clip-rule="evenodd" d="M14.7456 11.6621L14.7922 11.2894L15.3787 10.3496L15.9923 8.69918V6.4428L15.9457 5.13796L16.0428 4.28344L16.1165 4.01182L16.1943 3.90686L16.695 4.16696L17.3865 5.10673L17.4525 6.92049L16.7805 9.78257L14.8621 11.8759L14.7456 11.6621Z" fill="#DFC068"/>
<path fill-rule="evenodd" clip-rule="evenodd" d="M16.2719 3.80186C16.2719 3.80186 15.9647 3.8098 15.8991 5.08749C15.8336 6.36519 15.8019 7.03693 15.7553 7.67002C15.7087 8.30311 15.6001 8.68737 15.5456 9.06036C15.4911 9.43335 15.4601 9.94177 15.2855 10.2525C15.2087 10.3962 15.0446 10.8467 14.6601 11.1846C14.229 11.5574 13.5849 11.8177 13.4874 11.8372C13.3164 11.8758 12.4503 11.9614 12.097 12.1557C11.9729 12.2217 11.7591 12.2993 11.5223 12.5207C11.0523 12.9439 10.4271 13.7011 9.97658 14.6138C9.28538 15.977 8.59418 19.8254 8.59418 19.8254L8.74957 19.5653C8.74957 19.5653 8.76903 19.2197 9.11463 18.6138C9.45255 18.0081 9.35552 17.3284 9.82528 16.1672C10.0078 15.7246 10.2369 15.1498 10.5165 14.6604C10.9594 13.8642 11.4952 13.1807 12.0351 12.8079C12.9165 12.2022 13.8875 12.0702 13.8875 12.0702L14.9322 11.379C14.9322 11.379 15.1148 11.0257 15.3556 10.6217C15.6933 10.0549 16.1236 9.42183 16.2176 8.50151C16.3615 7.13831 16.0156 6.24513 16.0351 5.43745C16.0545 4.62977 16.0622 4.03559 16.2255 3.89172C16.3889 3.74785 16.2721 3.80237 16.2721 3.80237L16.2719 3.80186Z" fill="#A88F33"/>
<path fill-rule="evenodd" clip-rule="evenodd" d="M16.2719 9.89903C16.2719 9.89903 16.7327 8.76495 16.9436 7.75913C16.9825 7.55714 17.0601 7.35542 17.0796 7.19234C17.1766 6.24079 17.2037 5.8486 17.0796 5.32815C16.9825 4.94415 16.6098 4.59804 16.4155 4.32975C16.2253 4.04994 16.1359 3.94575 16.1748 3.88687C16.2138 3.82799 16.3651 3.73174 16.5125 3.74326C16.6693 3.74782 16.8234 3.78421 16.9657 3.85023C17.1079 3.91624 17.2352 4.01049 17.3399 4.12726C17.6389 4.47286 17.8757 5.64585 17.8757 5.64585L18.1248 7.19362L18.7579 9.14306L16.2724 9.90057L16.2719 9.89903Z" fill="#C99E3D"/>
<path fill-rule="evenodd" clip-rule="evenodd" d="M20.6019 8.71859C20.6019 8.71859 20.5163 8.75725 20.3612 8.71859C20.3678 8.78199 20.3568 8.84598 20.3294 8.90353C20.302 8.96107 20.2592 9.00993 20.2058 9.04474C20.0427 8.97869 18.5162 9.11078 18.5162 9.11078C18.5162 9.11078 17.8056 8.98637 17.5841 8.04659C17.429 7.42118 17.7006 6.55923 17.6113 5.99219C17.4753 5.15712 17.2851 4.99379 17.2657 4.73395C17.2462 4.47411 17.2267 4.40781 17.2267 4.24473C17.1412 4.22528 17.0908 4.19814 17.0056 4.19814C16.9861 4.12134 17.0248 4.05427 16.9395 3.91833C16.9861 3.93779 17.3046 3.9767 17.6773 4.32998C17.9845 4.61747 17.9845 4.72218 18.0308 4.78054C18.089 4.83866 18.559 5.24134 18.761 5.64275C18.9629 6.04416 19.3551 7.32416 19.4445 7.53382C19.4716 7.61933 19.53 7.70483 19.6749 7.89888C19.9002 8.17869 20.2301 8.64128 20.6029 8.71808L20.6019 8.71859Z" fill="#B58634"/>
<path fill-rule="evenodd" clip-rule="evenodd" d="M18.0856 4.80005C18.3209 5.18008 18.5322 5.5744 18.7185 5.98072C18.9476 6.49707 19.0835 6.9205 19.371 7.2661C19.2156 6.81579 18.9399 5.93029 18.7768 5.61566C18.5943 5.28286 18.2216 4.92446 18.0856 4.8003V4.80005Z" fill="#A88F33"/>
<path fill-rule="evenodd" clip-rule="evenodd" d="M15.4447 11.1846C15.4447 11.1846 15.0525 11.2816 14.3224 11.6661C14.0815 11.7903 13.8527 11.895 13.6312 11.9923C13.056 12.2524 12.439 12.4927 11.9496 12.6253C11.9885 12.6719 12.0077 12.6911 12.0077 12.6911C12.0077 12.6911 12.0077 12.8816 12.1127 12.9901C12.0545 13.0485 11.2776 13.5766 11.507 15.3436C11.6621 15.2854 11.8446 15.2076 11.8718 15.2076C11.9186 15.2156 11.9301 15.3436 11.9882 15.3436C12.0463 15.3436 12.2368 15.2668 12.4388 15.0056C12.4311 15.1106 12.3146 16.1669 12.9398 16.8775C13.0563 16.7416 13.3514 16.291 13.3514 16.291L13.3591 16.1474C13.3591 16.1474 13.3862 15.6464 13.5496 15.1882C13.7129 14.7299 14.0311 14.392 14.0311 14.392L15.6928 12.0191L15.4442 11.1843L15.4447 11.1846Z" fill="#E6C367"/>
<path fill-rule="evenodd" clip-rule="evenodd" d="M13.8913 14.6689C13.8152 14.7226 13.7314 14.7645 13.6427 14.793C13.6156 14.696 13.5767 14.3619 13.8058 14.0358C14.0738 13.6433 14.6601 13.1347 14.8231 12.7302C14.9281 12.4698 14.8815 11.8175 15.8136 10.9825C16.7457 10.1474 17.1105 9.86016 17.1105 9.86016L18.6173 9.10291L20.4697 9.83302L19.5494 13.4401L18.8349 15.1297L15.9933 14.5939L13.891 14.6689H13.8913Z" fill="#DCBA5A"/>
<path fill-rule="evenodd" clip-rule="evenodd" d="M14.976 13.6894L15.3296 13.2467V12.9321C15.3296 12.9321 15.7217 12.8272 16.1449 12.3961C16.5681 11.9649 17.1546 11.1378 17.6712 11.1882C18.1878 11.2466 18.2382 12.3106 18.2577 12.6098C18.2771 12.9091 18.3432 13.5883 18.4479 13.9536C18.5644 14.3186 17.1897 15.701 17.1897 15.701L16.256 16.4117L14.976 13.6894Z" fill="#E9CE77"/>
<path fill-rule="evenodd" clip-rule="evenodd" d="M16.0699 17.3747C16.0699 17.3747 16.3574 16.9241 16.1467 16.8271C16.2708 16.5476 16.5 16.2524 16.5 16.2524C16.5 16.2524 16.663 15.8487 17.1912 15.3515C17.7193 14.8544 18.0457 14.5241 18.1312 14.1903C18.1839 13.9727 18.2126 13.7501 18.2167 13.5262C18.2738 13.5729 18.3348 13.6144 18.3992 13.6504C18.4847 13.6893 18.8884 14.0231 18.8303 14.6951C18.7722 15.3671 18.5231 15.6467 18.5231 15.6467C18.5231 15.6467 18.2825 15.8873 18.1117 16.0118C17.9289 16.1359 17.8631 16.2795 17.5562 16.2913C17.5877 16.2662 17.6232 16.2465 17.6612 16.2329C17.6612 16.2329 17.3427 16.1943 17.1717 16.3494C17.0007 16.5046 16.6372 16.9825 16.4546 17.1264C16.2721 17.2429 16.0707 17.375 16.0707 17.375L16.0699 17.3747Z" fill="#CDAE50"/>
<path fill-rule="evenodd" clip-rule="evenodd" d="M28.9825 9.82116C28.5237 9.65394 28.0415 9.55961 27.5535 9.54161C26.7379 9.51447 25.5457 9.56106 24.3768 9.56874C23.1186 9.57642 21.9768 9.13764 20.3924 9.06007C20.1323 8.90468 19.4708 8.22499 17.4059 9.66577C17.5301 9.65809 18.9051 9.3473 19.3825 9.94558C19.8641 10.5398 19.7281 11.5494 19.6623 11.7901C19.5379 12.3261 19.1339 13.1067 18.9711 13.6543C18.8083 14.2018 18.8467 14.4896 18.7302 14.8736C18.6138 15.2576 18.3575 15.4483 18.5088 15.8909C18.7108 15.7668 18.816 15.7668 19.1534 15.0095C19.4908 14.2523 19.4214 13.7124 19.9808 13.0716C20.5284 12.427 21.44 11.5453 21.7866 11.3239C22.1332 11.1024 24.8855 9.67345 27.7673 11.0367C28.4623 10.9629 28.9828 9.8209 28.9828 9.8209L28.9825 9.82116Z" fill="#D2A83E"/>
<path fill-rule="evenodd" clip-rule="evenodd" d="M18.5669 9.29272C18.5641 9.26354 18.5576 9.23482 18.5477 9.20722C18.5208 9.15043 18.4854 9.09804 18.4428 9.05183C18.4428 9.05183 17.7593 8.92767 17.4137 8.96632C16.8077 9.03237 16.2601 9.78194 16.0038 10.1665C15.7476 10.551 15.4291 11.1449 15.0835 11.4518C15.0873 11.4219 15.0804 11.3917 15.0641 11.3663C15.0641 11.3663 15.0835 11.3935 15.0449 11.4324C15.0062 11.4713 15.0059 11.4905 15.0254 11.5092L15.0838 11.5673C15.103 11.5673 15.639 11.3264 16.3692 10.6457C17.1459 9.93503 17.7401 9.57049 18.0508 9.44556C18.2166 9.37512 18.3898 9.32385 18.5672 9.29272V9.29272H18.5669Z" fill="#C29637"/>
<path fill-rule="evenodd" clip-rule="evenodd" d="M31.8254 6.37292C31.8254 6.37292 31.701 6.52806 31.5456 6.69907C31.2 7.06412 30.7494 7.47552 30.3649 7.89894C30.0001 8.30291 29.5885 8.61753 29.1261 9.14566C28.6638 9.67379 28.1277 10.26 27.9921 10.431C27.8679 10.602 27.7709 10.8816 27.7709 11.0252C27.7048 10.9786 27.6273 10.9282 27.6273 10.9282C27.6599 10.9892 27.699 11.0465 27.7437 11.0992C27.8408 11.2351 27.9921 11.4064 28.0699 11.5108C28.1654 11.6438 28.2339 11.7942 28.2716 11.9535C28.3182 11.9611 28.6172 12.0195 28.9902 11.4059C29.3632 10.7923 29.8522 10.1205 29.8522 10.1205L30.6289 8.96697L31.1183 7.98854L31.7327 6.89337L31.8262 6.37292H31.8254Z" fill="#AC8132"/>
<path fill-rule="evenodd" clip-rule="evenodd" d="M32.6216 5.5885C32.6216 5.5885 32.1515 5.9725 31.969 6.20291C31.7865 6.43331 31.3546 7.03799 31.3546 7.03799L31.51 7.01853L32.2985 6.31964L32.6057 5.77205L32.6213 5.58952L32.6216 5.5885Z" fill="#A88F33"/>
<path fill-rule="evenodd" clip-rule="evenodd" d="M32.4777 36.4505C32.4777 36.4505 32.47 36.1321 32.6487 35.9419C32.8312 35.7514 33.2933 35.4718 33.7439 34.4233C34.1944 33.3747 34.2446 33.1379 34.2446 33.1379C34.2446 33.1379 33.4369 33.8291 32.939 33.9922C33.0555 33.7513 33.1215 33.5805 33.1799 33.4561C33.1139 33.398 32.8343 33.3319 32.8072 33.301C32.9623 33.1456 33.0478 32.7649 33.3624 32.5125C33.7664 32.2053 34.5042 31.6774 35.0776 31.2069C35.6511 30.7364 36.7785 29.642 36.9224 29.3235C37.0079 29.4476 37.0271 29.5252 37.0271 29.5252C37.0271 29.5252 36.4603 30.2633 36.1651 30.733C35.9048 31.137 35.9242 31.3661 35.9242 31.3661L36.4603 31.1357C36.4603 31.1357 36.6154 31.7104 35.9127 32.5844C36.2199 32.4679 36.3438 32.5378 36.5184 32.4405C36.2309 32.6233 35.8349 32.8719 35.4621 33.5552C35.0971 34.2387 34.5999 35.0348 33.7613 35.5317C32.9457 36.056 32.4756 36.4482 32.4756 36.4482L32.4777 36.4505Z" fill="#A67A2E"/>
<path fill-rule="evenodd" clip-rule="evenodd" d="M30.3728 10.2254C30.3728 10.2254 30.0544 10.8892 30.0078 11.4058C30.0001 11.5303 29.9689 11.6273 29.9689 11.7709C29.9612 12.233 29.996 12.7496 29.8921 12.9902C29.8532 12.8932 29.8337 12.8271 29.7948 12.7885C29.7367 12.9516 29.6317 13.4602 29.5462 13.6504C29.5076 13.5263 29.4221 13.0952 29.43 12.5865C29.4379 12.0778 29.4492 11.9806 29.4492 11.8759C29.43 12.031 29.325 12.2409 29.2861 12.3651C29.228 12.2604 29.162 12.1244 29.0842 12.0118C29.0376 12.0886 28.9795 12.202 28.929 12.2604C28.9211 12.2138 28.9019 12.0894 28.8901 11.9148C28.8824 11.7128 28.8707 11.4527 28.8824 11.3982C28.9016 11.2935 29.065 10.8818 29.4105 10.505C29.8222 10.0544 30.2456 9.18863 30.3698 8.9206C30.4939 8.65257 31.022 7.53821 31.022 7.53821H31.426L30.8395 8.87401C30.8395 8.87401 30.4862 9.60412 30.3037 9.8724C30.1212 10.1407 29.7367 10.9095 29.5657 11.2085C29.6898 11.0454 29.7948 10.9599 29.9192 10.8045C30.0395 10.6957 30.3733 10.2259 30.3733 10.2259L30.3728 10.2254Z" fill="#8C6228"/>
<path fill-rule="evenodd" clip-rule="evenodd" d="M32.6292 5.53784C32.5632 5.74093 32.459 5.92951 32.322 6.09336C32.0811 6.38085 31.5645 6.76511 31.3124 7.07179C31.082 7.3708 30.6212 8.18642 30.8306 9.15333C30.9074 8.94367 31.052 8.52818 31.4365 8.05816C31.821 7.58815 32.2327 7.0485 32.4349 6.62917C32.6366 6.20575 32.6638 5.87192 32.6638 5.87192L32.7406 5.7749L32.694 5.55346L32.6279 5.53784H32.6292Z" fill="#CBA94C"/>
<path fill-rule="evenodd" clip-rule="evenodd" d="M40.4933 31.2971C40.4933 31.2971 40.3379 30.8739 40.2913 30.4894C40.2447 30.1049 40.3681 30.0286 40.2253 29.5885C40.1398 29.3205 39.9846 29.3581 39.9457 29.3205C39.9068 29.2829 39.8797 28.8779 39.8874 28.6564C39.895 28.435 39.8797 28.1478 39.8408 28.0234C39.7827 27.9768 39.7438 27.9378 39.6582 27.6506C39.5612 27.3631 39.5146 27.2195 39.468 27.1343C39.4214 27.049 39.2853 26.9712 39.2853 26.8857C39.2853 26.7147 39.4406 26.6256 39.4406 26.5785C39.433 26.4815 39.3165 26.5593 39.2853 26.5319C39.2466 26.4853 39.3825 26.2058 39.3321 26.1668C39.3126 26.1476 39.1767 26.3107 39.1416 26.2641C39.1027 26.2173 39.0561 25.7552 38.9862 25.4485C38.9205 25.1495 38.8503 24.9322 38.8426 24.8428C38.8349 24.7573 38.3066 23.2505 38.1786 22.8854C38.0754 22.577 37.9886 22.2633 37.9185 21.9457C37.8796 21.7631 37.8524 21.3901 37.833 21.429C37.8135 21.468 37.8253 21.6582 37.794 21.6505C37.7669 21.6426 37.6699 20.9787 37.6389 20.8738C37.6118 20.7688 37.4484 20.413 37.4085 20.1554C37.3696 19.8951 37.2844 19.2154 37.226 18.7533C37.1676 18.2913 37.1405 18.101 37.1405 17.9853C37.15 17.7023 37.1344 17.419 37.0939 17.1387C37.0171 16.6493 36.8635 16.0551 36.7288 15.7098C36.4687 15.0572 35.7773 13.3873 35.6536 12.9718C35.6536 12.8669 35.7896 12.9252 35.7896 12.9252C35.7896 12.9252 36.1272 13.7718 36.3758 14.4241C36.6167 15.0767 36.8458 15.6514 36.9042 15.7098C36.9508 15.7679 37.3158 16.4086 37.4789 17.4572C37.642 18.5058 37.7001 19.4727 37.7974 20.1173C37.844 20.4245 37.8829 20.7504 37.9799 21.0765C38.0846 21.4301 38.2477 21.7951 38.4614 22.3542C38.644 22.8242 38.7799 23.2164 38.8536 23.5544C38.9391 23.9855 38.9391 24.3116 38.9896 24.5254C39.0364 24.7079 39.1061 25.0727 39.2694 25.6006C39.4327 26.1284 39.6731 26.8084 39.8362 27.2315C40.1549 28.0781 40.297 28.785 40.3451 29.1618C40.3876 29.5501 40.5315 30.8939 40.4926 31.2976L40.4933 31.2971Z" fill="#A88F33"/>
<path fill-rule="evenodd" clip-rule="evenodd" d="M32.6487 5.49116L32.6292 5.53775C32.6292 5.53775 32.6873 5.55721 32.6758 5.63503C32.6766 5.74151 32.6701 5.84791 32.6564 5.9535C32.6372 6.08943 32.5982 6.19414 32.5906 6.27964C32.5906 6.46217 32.6177 6.67183 32.3602 7.19228C32.2834 7.3359 32.236 7.46006 32.1971 7.54556C32.1001 7.75523 32.0806 7.78646 31.9951 7.88349C32.1311 7.80669 32.6205 7.49948 32.8688 7.54556C32.6981 7.64259 32.4377 7.83305 32.2747 8.08163C32.3136 8.08931 32.4766 8.12054 32.7355 8.08163C33.1666 8.01558 33.6481 7.86019 34.0712 7.89117C34.5336 7.9183 34.351 7.3359 34.351 7.3359L33.8175 6.16316L32.8079 5.45276L32.6487 5.49141V5.49116Z" fill="#BE9C44"/>
<path fill-rule="evenodd" clip-rule="evenodd" d="M35.2816 14.2759C35.2816 14.2759 34.8311 13.8253 34.6486 12.2791C34.466 10.7256 34.5049 8.43905 34.5049 8.43905L34.1399 7.54587C34.1399 7.54587 34.0631 6.95169 33.8719 6.73051C33.6806 6.50932 33.3051 6.13633 33.1341 5.9538C32.9631 5.77128 32.769 5.5227 32.6525 5.48379C32.7106 5.38676 32.971 4.83918 33.9689 4.8315C34.9668 4.82382 35.2745 5.37908 35.3787 5.58107C35.4829 5.78305 35.9534 6.65627 36.128 8.32027C36.2911 9.98222 36.299 10.1066 36.2719 10.6814C36.2524 10.9998 36.1474 11.7376 35.9647 12.5258C35.7977 13.194 35.6152 13.9397 35.2811 14.2774L35.2816 14.2759Z" fill="#A17C34"/>
<path fill-rule="evenodd" clip-rule="evenodd" d="M33.8688 15.6001C34.0189 15.6109 34.1689 15.5771 34.2999 15.5028C34.4435 15.4951 34.964 15.5612 35.3639 15.0525C35.391 15.1687 35.4612 15.4836 35.2784 15.7631C35.3756 15.6659 35.5193 15.6272 35.5387 15.6001C35.5464 15.7437 35.6823 16.1863 35.1076 17.262C35.2627 17.0913 35.4453 17.0989 35.6084 17.0795C35.6163 17.2815 35.7248 17.9609 35.4376 18.3262C35.2474 18.5748 34.9366 18.497 34.9366 18.497C34.9411 18.4427 34.9411 18.3881 34.9366 18.3339C34.9289 18.2289 34.89 18.1242 34.9174 18.0543C34.7672 17.9857 34.6304 17.891 34.5134 17.7745C34.1755 17.4561 33.7367 16.9126 33.7057 16.5086C33.6668 16.0581 34.0708 15.961 34.0708 15.961C34.0369 15.9308 34.0081 15.8953 33.9853 15.8561C33.9658 15.7903 33.9464 15.6853 33.8688 15.6001V15.6001Z" fill="#8C6228"/>
<path fill-rule="evenodd" clip-rule="evenodd" d="M30.8736 10.7146C30.8736 10.7146 30.8542 10.6875 30.7495 10.8117C30.7689 10.6875 30.7884 10.5708 30.796 10.4581C30.8456 10.3539 30.9097 10.2571 30.9865 10.1709C30.9281 10.2871 30.8892 10.3921 30.8892 10.3921C30.8892 10.3921 31.0331 10.1241 31.2428 9.96098C31.3864 9.8445 31.5689 9.79023 31.6465 9.68143C31.732 9.56495 31.7125 9.5455 31.732 9.52604C31.732 9.52604 31.9224 9.40188 32.2138 9.03657C32.2524 8.98998 32.3108 8.93954 32.3497 8.89295C32.4155 8.86582 32.5709 8.79593 32.7534 8.70249C32.9439 8.59778 33.1574 8.45417 33.2894 8.39529C33.5495 8.27881 33.8255 8.29058 33.9535 8.1078C34.0505 8.08066 34.1552 7.78934 34.136 7.54102C34.2796 7.59913 35.0174 8.05737 35.2701 9.05935C35.4526 9.77001 35.1262 10.8652 34.9903 11.3936C34.8544 11.9219 34.8352 12.3139 34.6447 12.5545C34.4038 12.8732 33.6274 13.3225 33.4369 13.545C33.2738 13.7275 32.7846 14.1896 32.8038 14.5234C32.8233 14.772 33.13 14.9074 33.1963 14.9545C33.2626 15.0016 33.2621 15.0595 33.3865 15.0313C33.5109 15.0032 33.5572 14.9458 33.6079 14.9458C33.666 14.9535 33.666 14.9653 33.6932 14.9653C33.7128 14.9647 33.7324 14.962 33.7515 14.9573C33.7515 14.9573 33.7321 15.3109 32.9049 15.4181C32.8466 15.4261 32.7885 15.4453 32.7145 15.457C32.8118 15.4105 32.8699 15.4105 32.9748 15.2668C32.8583 15.2474 32.5243 15.2279 32.4388 15.2008C32.4659 15.1542 32.5552 15.0298 32.629 14.9717C32.695 14.9136 32.6213 14.8949 32.5632 14.9251C32.4631 14.9932 32.3671 15.067 32.2757 15.1463C32.1787 15.2318 32.0932 15.3482 31.9378 15.4535C31.8912 15.2981 31.8989 15.0029 32.0817 14.7894C32.0348 14.7971 31.9455 14.933 31.8602 14.9059C31.8448 14.7642 31.854 14.621 31.8874 14.4825C31.9339 14.3076 32.1864 14.0009 32.1864 14.0009L33.4057 11.8221L33.6658 10.1717L30.8736 10.7141V10.7146Z" fill="#92723A"/>
<path fill-rule="evenodd" clip-rule="evenodd" d="M30.8079 10.8078C30.8079 10.8078 30.7418 10.8544 30.8739 10.9437C30.8545 10.9709 30.8079 11.0679 30.7495 11.134C30.6837 11.2108 30.6136 11.2584 30.5864 11.3244C30.5283 11.4604 30.4817 11.5535 30.4817 11.6119C30.4817 11.6703 30.4623 12.043 30.2992 12.2837C30.2408 12.3692 30.1748 12.5128 30.1282 12.6098C30.0311 12.7806 29.9456 12.917 29.9262 12.9938C29.8875 13.1297 29.8604 13.5025 29.8604 13.5025C29.8604 13.5025 29.9459 13.3975 29.9769 13.3589C29.93 13.4559 29.8796 13.5606 29.8058 13.6384C29.8524 13.5995 29.9884 13.5025 30.2175 13.3005C30.536 13.0327 31.0331 12.5821 31.6391 12.2253C31.4563 12.2913 31.3012 12.2913 31.177 12.3108C31.274 12.2138 32.1478 11.1885 32.6061 11.0915C32.6339 11.0562 32.6477 11.0119 32.645 10.967L32.2525 10.9284L31.4563 11.0991L31.3401 10.4847L30.8079 10.807V10.8078Z" fill="#B18E3E"/>
<path fill-rule="evenodd" clip-rule="evenodd" d="M32.074 14.303C32.074 14.303 31.9691 14.4077 31.872 14.668C31.7973 14.59 31.7333 14.5025 31.6816 14.4077C31.5379 14.167 31.3168 13.8601 30.8002 14.0349C30.7925 13.8719 30.7807 13.7864 30.8002 13.6699C30.8857 13.6507 31.1458 13.441 31.4059 13.1341C31.5886 12.9244 31.7594 12.6835 31.8759 12.3768C31.9527 12.3185 32.0855 12.2214 32.2599 12.1088C32.5084 11.938 32.8074 11.7048 32.854 11.4447C32.7376 11.4913 32.489 11.6078 32.116 11.5886C32.2599 11.5226 32.481 11.4527 32.4539 11.1652C32.5123 11.1263 32.5589 11.0991 32.5589 11.0991C32.5151 11.0845 32.4691 11.0779 32.4229 11.0797C32.415 11.0525 32.4035 11.0139 32.3374 11.0331C32.2714 11.0523 32.2606 11.0525 32.2519 11.0797C32.2248 11.0876 32.1354 11.0797 32.0694 11.1265C32.0034 11.1734 31.8208 11.3282 31.7509 11.3554C31.7781 11.3088 31.8167 11.2392 31.8167 11.2392C31.8167 11.2392 31.6265 11.2584 31.4906 11.316C31.242 11.4015 30.9548 11.5569 30.6635 11.7082C30.6906 11.6616 30.7024 11.6314 30.7216 11.6226C30.7408 11.6139 30.7876 11.6034 30.7876 11.5955C30.7876 11.5876 30.7684 11.5187 30.7799 11.4908C30.867 11.3063 30.9698 11.1296 31.0871 10.9627C31.2231 10.7799 31.2502 10.5198 31.2502 10.5198L31.8444 10.2208L33.5143 9.83679L34.5979 9.90284L34.462 10.6524L33.822 11.9611L33.2744 13.1533L32.649 13.8836L32.0743 14.303H32.074Z" fill="#543E26"/>
<path fill-rule="evenodd" clip-rule="evenodd" d="M34.7806 11.0592C34.7806 11.0592 34.1281 11.8669 33.9456 11.9913C34.0621 11.7427 34.7806 10.263 35.0407 9.85137C34.9826 9.80478 34.9048 9.80478 35.0873 9.08337C34.9322 9.44817 34.8777 9.63864 34.7497 9.73566C34.6217 9.83269 34.6058 9.80171 34.5193 9.80171C34.5356 9.77215 34.5423 9.73824 34.5385 9.70469C34.5385 9.70469 33.9909 9.63864 33.6169 9.63864C33.2429 9.63864 32.5025 9.84062 32.0906 10.0037C31.7645 10.1396 31.582 10.1396 31.4655 10.2249C31.349 10.3219 31.283 10.4269 31.2246 10.454C31.178 10.4811 30.9568 10.551 30.9061 10.6248C30.8595 10.7016 30.782 10.7878 30.782 10.8073C30.782 10.8267 30.7625 10.8541 30.8209 10.8344C30.8401 10.8267 30.984 10.7489 31.147 10.6519C31.3682 10.5277 31.6362 10.3841 31.8305 10.2986C32.3858 10.0772 32.5606 10.1161 32.809 10.0695C33.0691 10.0229 33.442 9.91409 33.6904 9.91409C33.9389 9.90641 34.4089 9.91409 34.5177 9.93355C34.4711 9.97246 34.4322 10.0191 34.4517 10.1821C34.4517 10.2287 34.4128 10.2791 34.3749 10.3918C34.2587 10.7103 34.0372 11.2384 33.9141 11.5064C33.7433 11.8712 33.5493 12.1782 33.4533 12.3684C33.3573 12.5586 33.1461 13.0596 32.937 13.3276C32.7278 13.5956 32.6185 13.7587 32.553 13.8171C32.4874 13.8754 32.0169 14.2208 32.052 14.3452C32.1375 14.3181 32.6774 14.1148 33.0693 13.6735C33.4612 13.2321 33.5393 12.9628 33.846 12.7219C34.1527 12.481 34.3936 12.0773 34.5372 11.7435C34.6575 11.4327 34.6304 11.3357 34.7817 11.06L34.7806 11.0592Z" fill="#806031"/>
<path fill-rule="evenodd" clip-rule="evenodd" d="M20.7186 17.0875C20.7186 17.0875 20.6331 17.4408 20.4388 17.6156C20.2486 17.7866 19.9107 17.9341 19.872 18.2216C19.8254 18.5088 20.2099 18.6527 20.2099 18.6527C20.2099 18.6527 20 18.9983 20 19.2584C20 19.5264 19.9923 19.5768 20.0195 19.8331C19.9887 19.8529 19.9625 19.8791 19.9427 19.9099C19.9427 19.9099 19.9619 20.1585 20.1523 20.3136C20.3428 20.4687 20.5056 20.5622 20.6027 20.5233C20.6175 20.5549 20.6305 20.5874 20.6416 20.6205C20.6416 20.6205 20.7854 20.2555 20.8825 19.937C20.9795 19.6109 21.065 19.6572 21.1037 19.2184C21.1423 18.7796 21.5645 18.0262 21.5645 18.0262L21.8525 17.3824L21.3827 17.0173L20.7186 17.0872V17.0875Z" fill="#B6903C"/>
<path fill-rule="evenodd" clip-rule="evenodd" d="M21.5923 17.7203C21.4955 17.8198 21.406 17.9262 21.3248 18.0388C21.2006 18.2098 21.1036 18.3649 20.9211 18.4312C20.7386 18.4976 20.6221 18.497 20.6336 18.6798C20.6451 18.8626 20.8161 18.9399 20.9132 19.0331C21.0181 19.1301 21.1036 19.2932 21.057 19.476C21.1151 19.4488 21.2201 19.4176 21.3171 19.208C21.4141 18.9983 22.0928 17.7206 22.0928 17.7206H21.5923V17.7203Z" fill="#685026"/>
<path fill-rule="evenodd" clip-rule="evenodd" d="M24.2688 14.7728C24.2688 14.7728 24.3269 14.6176 24.2688 14.505C24.2104 14.3885 23.8572 14.3496 23.6823 14.2175C23.4998 14.0816 23.2783 13.9871 23.0958 14.0468C23.1229 13.9807 23.2317 13.8368 23.1424 13.8059C23.0569 13.7787 22.7387 13.9223 22.6532 13.9884C22.5677 14.0544 22.3734 14.132 22.3347 14.1789C22.2961 14.2257 22.2298 14.3148 22.1909 14.2759C22.1519 14.2487 22.1327 14.1789 22.0667 14.2175C22.0006 14.2562 21.6827 14.5165 21.6241 14.6681C21.5654 14.8196 21.4336 15.1575 21.0376 15.5418C20.6415 15.926 20.4705 16.1749 20.587 16.3185C20.7035 16.4621 20.758 16.3574 20.7775 16.4816C20.7924 16.6034 20.7859 16.727 20.758 16.8466C20.7114 17.0486 20.6339 17.2388 20.7386 17.2777C21.0066 17.3632 21.267 17.2009 21.3251 17.2506C21.4415 17.3553 21.259 17.7321 21.5347 17.8058C21.8145 17.8826 22.0902 17.7398 22.0902 17.7398L23.1076 17.1922L24.0863 16.6759L24.587 15.6854L24.3185 14.8583L24.2673 14.7728H24.2688Z" fill="#D4B968"/>
<path fill-rule="evenodd" clip-rule="evenodd" d="M23.3088 17.1379C23.3088 17.1379 23.1378 16.8778 23.3477 16.6485C23.5577 16.4191 23.8564 16.3223 23.9729 16.1787C23.9507 16.1513 23.921 16.1311 23.8874 16.1206C23.9647 15.9822 24.0827 15.871 24.2253 15.8019C24.1672 15.7438 24.0894 15.6972 24.0041 15.6972C23.8137 15.6972 23.6969 15.8136 23.5223 15.8136C23.3516 15.8136 23.3321 15.7281 23.3321 15.7281C23.3321 15.7281 23.6196 15.701 23.5922 15.5727C23.5651 15.4368 23.5154 15.4368 23.5154 15.4368C23.5154 15.4368 24.0707 15.2064 24.1677 15.0835C24.2647 14.9607 24.2532 14.8155 24.2727 14.7574C24.3385 14.7574 24.723 14.5554 24.8784 14.6409C25.0338 14.7264 24.925 14.9594 24.925 14.9594C24.925 14.9594 25.3952 14.6058 25.6349 14.2592C25.8445 14.2787 25.9421 14.1156 26.0957 14.1156C26.2861 14.1156 26.5851 14.3757 26.6432 14.931C26.6822 15.2494 26.7403 15.4319 26.6822 15.9951C26.655 16.3136 26.6627 16.9935 26.759 17.3309C26.8247 17.599 26.9801 17.5718 26.9801 17.5718C26.9563 17.6535 26.909 17.7264 26.8442 17.7815C26.7392 17.8785 26.7277 18.135 26.7392 18.2321C26.7547 18.303 26.7742 18.373 26.7976 18.4417C26.7976 18.4417 26.6734 18.5853 26.6422 18.6826C26.6151 18.7796 26.4871 18.8457 26.3936 18.8457C26.3002 18.8457 26.347 18.8378 26.2229 18.8457C26.0987 18.8536 26.0598 18.8728 25.982 18.8457C25.9042 18.8186 25.8461 18.7873 25.8773 18.5385C25.9044 18.2899 24.918 17.7114 24.918 17.7114L23.3052 17.1366L23.3088 17.1379Z" fill="#CCA849"/>
<path fill-rule="evenodd" clip-rule="evenodd" d="M21.4564 19.5922C21.4564 19.5922 21.8096 20.0623 23.2622 20.0623C23.9534 20.0623 24.1943 19.9962 24.3374 19.9573C24.4928 19.9184 25.0752 19.6895 25.6617 18.9981C26.1899 18.3729 26.0734 18.1167 26.0734 18.1167L25.7662 18.0701L24.7678 18.206L21.8135 19.4642L21.4551 19.5922H21.4564Z" fill="#585136"/>
<path fill-rule="evenodd" clip-rule="evenodd" d="M22.5398 19.7086C22.5398 19.7086 21.2816 19.9884 21.2816 19.1923C21.2816 18.4156 22.0583 17.6 22.2526 17.4564C22.4545 17.3125 22.9361 17.1492 22.9361 17.1492H24.0973L24.3185 17.7357L24.2215 19.0016L22.5398 19.7084V19.7086Z" fill="#252211"/>
<path fill-rule="evenodd" clip-rule="evenodd" d="M23.701 17.3865C23.701 17.3865 23.4604 17.165 22.9128 17.4633C22.3652 17.7615 21.9223 18.3849 21.8952 18.9509C21.868 19.4516 22.3068 19.8246 22.9903 19.8441C23.499 19.8633 23.806 19.8052 23.9614 19.7673C23.9224 19.7207 23.7205 19.4683 23.7205 19.4683L23.7013 17.3867L23.701 17.3865Z" fill="#C3B378"/>
<path fill-rule="evenodd" clip-rule="evenodd" d="M23.4642 17.5104C23.4642 17.5104 23.406 17.4638 23.2338 17.557C23.0901 17.6338 22.8805 17.8368 22.7174 17.9804C22.6124 18.0659 22.5464 18.1046 22.487 18.1706C22.2461 18.4581 22.0441 18.9281 22.1609 19.1611C22.2776 19.394 22.6619 19.6621 23.6405 19.4795L23.4613 17.5107L23.4642 17.5104Z" fill="#E6D89C"/>
<path fill-rule="evenodd" clip-rule="evenodd" d="M23.1457 17.9922C23.1457 17.9922 22.9903 18.2331 22.9903 18.6176C22.9903 19.0098 23.2118 19.635 24.0274 19.6816C24.6525 19.7205 25.0718 18.7807 25.5262 18.4157C25.8718 18.1361 26.0815 18.1282 26.0815 18.1282C26.0815 18.1282 25.7282 17.7442 24.7846 17.2468C23.8525 16.7458 22.8078 16.6797 22.2408 17.4487C22.5088 17.4293 23.3748 17.2078 23.3748 17.2078L23.7983 17.3438L23.1457 17.9925V17.9922Z" fill="#252211"/>
<path fill-rule="evenodd" clip-rule="evenodd" d="M24.3651 18.5009C24.3379 18.4428 24.3185 18.365 24.4311 18.3458C24.5437 18.3266 24.5942 18.3378 24.6331 18.4226C24.672 18.5073 24.7099 18.578 24.6523 18.613C24.5942 18.644 24.4426 18.613 24.3648 18.5004L24.3651 18.5009ZM24.1826 17.9533C24.1826 17.9533 24.1436 17.9805 24.1631 17.9262C24.1708 17.8604 24.2215 17.7437 24.3456 17.7711C24.4698 17.7984 24.4429 17.9341 24.4224 17.973C24.4019 18.012 24.2983 18.0777 24.2204 18.0498C24.2106 18.0473 24.2014 18.0425 24.1938 18.0358C24.1861 18.0291 24.1802 18.0207 24.1764 18.0112C24.1726 18.0017 24.1711 17.9915 24.172 17.9814C24.1729 17.9712 24.1761 17.9615 24.1815 17.9528L24.1826 17.9533Z" fill="#6F674D"/>
<path fill-rule="evenodd" clip-rule="evenodd" d="M13.6704 18.2015C13.6704 18.2015 13.9776 18.4319 14.3345 18.423C14.6878 18.415 15.1422 18.0502 15.3518 17.817C15.476 17.6811 15.5822 17.5375 15.6974 17.4248C15.7947 17.3278 15.8605 17.2812 15.9071 17.2152C15.9731 17.1384 16.043 16.994 16.0781 16.9471C15.9926 17.0132 15.8684 17.1299 15.7402 17.2075C15.616 17.2843 15.348 17.4287 15.2392 17.4676C15.1345 17.5065 14.047 18.082 14.047 18.082L13.6704 18.2015Z" fill="#AC924C"/>
<path fill-rule="evenodd" clip-rule="evenodd" d="M14.1399 15.3321C14.1399 15.3321 14.3106 15.2157 14.6409 15.1417C14.9593 15.0649 15.6001 15.0057 15.6001 15.0057L16.1282 15.2361L16.3379 16.0323L15.9539 16.8597L15.4647 17.1669L14.9092 16.2737L14.1412 15.3337L14.1399 15.3321Z" fill="#9F8E57"/>
<path fill-rule="evenodd" clip-rule="evenodd" d="M13.4487 16.0428L13.2659 16.1792C13.2659 16.1792 13.3128 16.0937 13.3514 15.8336C13.3901 15.5735 13.5923 14.9404 13.8875 14.5754C14.1827 14.2103 14.175 14.2298 14.175 14.2298C14.1478 14.2248 14.1199 14.2257 14.0931 14.2323C14.0663 14.239 14.0413 14.2513 14.0196 14.2684C14.0585 14.1824 14.3071 13.8752 14.5557 13.7216C14.8042 13.568 14.9013 13.5196 15.1614 13.6448C15.4215 13.77 15.4875 13.835 15.678 13.8273C15.8684 13.8197 16.0312 13.6177 16.0312 13.6177C16.0312 13.6177 16.0702 13.7418 15.9265 14.0293C15.7829 14.3168 15.2159 14.9031 15.2159 14.9031L14.0352 15.7107L13.4487 16.0435V16.0428Z" fill="#EAC970"/>
<path fill-rule="evenodd" clip-rule="evenodd" d="M14.3222 15.2351C14.3222 15.2351 15.1767 15.3516 15.4368 15.1109C15.4445 15.1381 15.4757 15.1381 15.4757 15.1575C15.4736 15.1722 15.4668 15.1858 15.4563 15.1962C15.4846 15.1917 15.5131 15.1891 15.5418 15.1885C15.576 15.1987 15.6112 15.2052 15.6467 15.208C15.6754 15.2073 15.704 15.2047 15.7322 15.2C15.7295 15.2193 15.723 15.2379 15.713 15.2546C15.7029 15.2713 15.6896 15.2858 15.6739 15.2973C15.7128 15.2973 15.7507 15.305 15.7507 15.336C15.7507 15.3669 15.7584 15.4604 15.7118 15.4798C15.6732 15.4905 15.6321 15.4877 15.5953 15.4719C15.5984 15.5454 15.6183 15.6173 15.6536 15.6818C15.7304 15.8254 15.8943 15.989 16.1144 15.9419C16.1144 15.9419 16.2307 16.2215 15.7415 16.8428C15.6757 16.9283 15.6055 17.0448 15.5203 17.1418C15.4866 17.2152 15.4608 17.292 15.4435 17.3709C15.4435 17.3709 16.2709 17.0524 16.5077 16.3262C16.7486 15.5961 16.7952 14.8777 16.7486 14.206C16.7406 14.0155 16.7096 13.8798 16.6631 13.7826C16.5466 13.5417 16.2202 13.5806 16.0883 13.7165C15.8979 13.907 15.5794 14.3806 15.1368 14.7067C14.6862 15.0329 14.667 15.0907 14.3212 15.2351H14.3222Z" fill="#D7BC6B"/>
<path fill-rule="evenodd" clip-rule="evenodd" d="M13.2972 16.2836C13.2972 16.2836 13.1341 16.3806 13.0486 16.7444C12.9631 17.1171 13.1254 17.5715 13.2193 17.7151C13.3133 17.8588 13.5265 18.2512 13.9689 18.2707C14.0784 18.2701 14.1867 18.2476 14.2874 18.2046C14.4418 18.1338 14.5867 18.0438 14.7185 17.9366C14.909 17.793 15.0641 17.6688 15.0447 17.657C14.9981 17.6376 13.8719 16.7055 13.8719 16.7055L13.4485 16.2329L13.2969 16.2841L13.2972 16.2836Z" fill="#585136"/>
<path fill-rule="evenodd" clip-rule="evenodd" d="M14.3616 17.8291C14.3616 17.8291 14.5907 17.8099 14.7267 17.7244C14.8626 17.6389 13.9305 16.7147 13.9305 16.7147L13.9965 17.7131L14.3616 17.8291Z" fill="#453A25"/>
<path fill-rule="evenodd" clip-rule="evenodd" d="M13.3709 16.2135C13.3709 16.2135 13.2544 16.4349 13.2544 16.4933C13.2349 16.6835 13.2933 17.2815 13.3399 17.4717C13.3865 17.6737 13.6389 17.9804 13.9653 17.9804C14.167 17.9804 14.4468 17.8562 14.4468 17.8252C14.4468 17.7863 14.1593 17.7484 14.0818 17.6038C14.0352 17.527 14.0157 17.336 14.005 17.143C13.9973 17.0188 13.9973 16.8829 14.0439 16.8358C14.1489 16.7193 14.1681 16.3852 14.1681 16.3852L14.5408 15.6927H14.0505L13.4641 16.0578L13.3709 16.2135Z" fill="#84754B"/>
<path fill-rule="evenodd" clip-rule="evenodd" d="M13.2273 16.4272C13.2273 16.4272 13.6113 15.9186 13.9574 15.8018C14.3035 15.6851 14.4584 15.7552 14.4584 15.7552L14.2564 16.2718L13.9689 16.5903L13.9884 16.7534C13.9884 16.7534 13.9415 17.1845 14.229 17.4835C14.5165 17.7825 14.73 17.771 14.8544 17.771C14.9788 17.771 15.3359 17.666 15.5185 17.2349C15.6815 16.8312 15.8175 16.3133 15.4913 15.7941C15.1726 15.2775 14.6097 15.2576 14.5009 15.2576C14.3921 15.2576 13.5378 15.3003 13.2273 16.4265V16.4272Z" fill="#252211"/>
<path fill-rule="evenodd" clip-rule="evenodd" d="M23.0874 18.1553C22.9437 18.0892 23.0797 17.6855 23.2233 17.5611C23.3669 17.4367 23.5494 17.2933 23.8682 17.2736C23.9844 17.2659 24.097 17.3397 24.0778 17.4175C24.0507 17.5611 23.8487 17.7631 23.6662 17.9067C23.4138 18.1048 23.2504 18.229 23.0874 18.1553Z" fill="#F7F7E7"/>
<path fill-rule="evenodd" clip-rule="evenodd" d="M15.3203 15.9534C15.4253 15.9457 15.5612 16.0302 15.5883 16.1438C15.6155 16.268 15.5223 16.5166 15.3203 16.5166C15.1572 16.5166 15.0717 16.3146 15.0717 16.2565C15.0736 16.2087 15.0869 16.1621 15.1106 16.1205C15.1183 16.1088 15.1378 15.9728 15.3203 15.9534V15.9534Z" fill="#F8F6DE"/>
<path fill-rule="evenodd" clip-rule="evenodd" d="M13.8058 16.0427C13.8058 16.0427 13.5378 16.1669 13.4137 16.4267C13.3249 16.6186 13.2981 16.8333 13.3369 17.0411C13.3563 17.1381 13.4533 17.3788 13.5194 17.4643C13.5854 17.5498 13.6748 17.6081 13.7408 17.6002C13.8069 17.5923 13.9425 17.4177 13.9425 17.313C13.9425 17.2083 13.9505 16.7654 14.0785 16.5245C14.1911 16.2839 13.8066 16.043 13.8066 16.043L13.8058 16.0427Z" fill="#D4C38B"/>
<path fill-rule="evenodd" clip-rule="evenodd" d="M13.8447 16.0232C13.7981 16.0504 13.7206 16.0893 13.7398 16.1397C13.7592 16.1863 13.9223 16.2165 13.9806 16.3302C14.0467 16.4467 14.0467 16.5708 14.0272 16.6292C14.078 16.6051 14.124 16.5721 14.1632 16.5319C14.2487 16.4349 14.3534 16.303 14.4427 16.303C14.5011 16.303 14.5592 16.3302 14.6137 16.3302C14.6992 16.3302 14.7845 16.303 14.7963 16.2137C14.8155 16.0972 14.6332 15.9923 14.5282 16.0117C14.5477 15.9349 14.5748 15.8215 14.4893 15.7437C14.4038 15.6659 14.136 15.8021 14.0777 15.841C14.0193 15.8799 13.8447 16.0235 13.8447 16.0235V16.0232Z" fill="#E2D59D"/>
<path fill-rule="evenodd" clip-rule="evenodd" d="M20.0156 24.1825L20.5903 24.0128L20.7534 24.1293C20.7534 24.1293 20.8696 24.3779 21.0524 24.4088C20.994 24.533 20.8425 24.6392 20.8504 24.7273C20.8584 24.8154 20.9359 24.8827 20.9359 24.8827C20.9359 24.8827 20.4193 25.737 21.4369 26.5979C21.196 26.6949 20.8893 26.8283 20.7263 26.9051C20.8425 26.9322 21.0911 26.9819 21.196 27.0761C21.301 27.1703 21.301 27.2003 21.398 27.2586C21.495 27.317 21.5531 27.3946 21.5339 27.4294C21.4679 27.3905 21.2465 27.2743 21.2078 27.3828C21.1691 27.4913 20.2486 27.4488 20.2486 27.4488L18.6952 27.7479C18.6952 27.7479 18.7533 27.5925 18.5902 27.4488C18.4 27.2781 18.167 27.4565 17.9185 27.2663C17.5923 27.0177 17.5805 26.7303 17.4758 26.6217C17.5805 26.5557 17.7943 26.4586 18.303 26.3913C18.2835 26.3524 18.2175 26.2359 18.2564 26.1312C18.303 25.9953 18.497 25.9098 18.4389 25.7472C18.5244 25.7278 18.5631 25.7278 18.7768 25.4597C18.9788 25.1917 19.103 25.1336 19.2584 25.1141C19.4138 25.0947 19.5069 25.1141 19.7944 24.8461C19.9961 24.6559 19.9304 24.4928 19.9304 24.4928C19.9304 24.4928 20.0622 24.4501 20.0159 24.182L20.0156 24.1825Z" fill="#CBAC5A"/>
<path fill-rule="evenodd" clip-rule="evenodd" d="M18.3186 24.2688C18.3263 24.2299 18.3575 24.2105 18.5672 24.2299C18.7768 24.2494 20.105 24.1058 20.4662 24.0863C20.8312 24.0592 22.1166 24.0784 22.742 24.2105C23.3674 24.3426 24.0003 24.4979 24.307 24.5755C24.6142 24.661 24.7109 24.6917 24.6992 24.7306C24.6915 24.7695 24.6224 24.8074 24.5827 24.7967C24.544 24.789 23.5264 24.4782 23.212 24.4127C22.8977 24.3472 21.8099 24.1718 21.2152 24.1823C20.66 24.1902 20.4385 24.1746 19.9688 24.2289C19.4988 24.2873 18.722 24.3648 18.4891 24.3338C18.2587 24.3067 18.3063 24.3067 18.3181 24.2678L18.3186 24.2688Z" fill="#D6BC6F"/>
<path fill-rule="evenodd" clip-rule="evenodd" d="M21.4446 27.3126C21.4446 27.3126 22.2407 27.7437 22.5282 28.2718C22.7379 28.664 22.404 28.8583 22.404 28.8583C22.404 28.8583 22.8546 28.8583 22.7962 29.1069C22.7691 29.262 22.0195 29.6814 21.5185 29.9028C21.0099 30.1242 21.0293 30.1127 20.7808 30.1514C20.5399 30.1903 19.8796 30.0746 19.7437 30.2679C19.6078 30.4611 19.6669 30.6603 19.7048 30.6913C19.7437 30.7184 20.0583 30.7573 20.0583 30.7573C20.0583 30.7573 19.9923 30.9399 19.34 30.9593C18.6877 30.9788 18.5244 31.0251 18.4855 31.0952C18.4466 31.161 18.6096 31.1224 18.9089 31.172C19.2079 31.2186 19.6272 31.2488 19.6272 31.2488C19.6272 31.2488 19.4913 31.3653 19.138 31.4585C18.734 31.5632 18.101 31.6605 17.9107 31.777C18.0078 31.843 18.1516 31.94 18.2179 31.9477C18.0549 31.9866 17.8255 32.0721 17.7868 32.1031C17.845 32.142 17.9228 32.1886 17.9228 32.1886C17.9228 32.1886 17.5964 32.5808 17.4062 32.6781C17.216 32.7754 16.1208 33.2838 15.744 33.1868C14.8042 32.9382 14.6877 31.9091 14.4586 31.8315C14.113 31.715 13.9499 31.9477 13.643 31.7846C13.7789 31.6876 13.8529 31.6295 13.9965 31.5635C13.8411 31.4867 13.0373 30.977 13.0373 30.977C12.9532 30.7938 12.8599 30.6149 12.7577 30.4412C12.6023 30.1731 12.3737 29.8158 12.2022 29.5011C11.8295 28.81 11.81 28.4915 11.4721 28.0993C11.5305 28.0225 11.7322 28.0333 11.7322 28.0333L14.5636 28.9653L19.584 29.1108L20.8896 27.2468L21.4448 27.3129L21.4446 27.3126Z" fill="#DFC677"/>
<path fill-rule="evenodd" clip-rule="evenodd" d="M14.0078 30.1552C14.0381 30.1889 14.0734 30.2178 14.1125 30.2407C14.2098 30.3068 14.3534 30.3846 14.4504 30.5008C14.4893 30.4427 14.5864 30.3377 14.7576 30.5008C14.9289 30.6639 15.1416 30.5477 15.274 30.5863C15.4099 30.6332 15.4176 30.6524 15.4176 30.6524C15.4176 30.6524 15.4944 30.5863 15.6662 30.5164C15.7711 30.4775 15.8953 30.4504 16.0312 30.4117C16.1554 30.3846 16.2913 30.3457 16.3848 30.3457C16.4703 30.4038 16.777 30.7297 18.0081 30.2486C19.1693 29.7981 19.4371 29.7477 19.6314 29.8173C19.6508 29.7707 19.6703 29.6813 19.9693 29.6931C19.9693 29.569 19.7207 29.1455 19.7207 29.1455L18.3498 28.6758H17.6L15.3516 29.0874L14.1056 29.7983L14.0086 30.1567L14.0078 30.1552Z" fill="#C4A859"/>
<path fill-rule="evenodd" clip-rule="evenodd" d="M13.2582 29.367C13.2582 29.367 13.2854 29.5767 13.5962 29.7981C13.9034 30.0193 13.9999 30.1514 13.9999 30.1514C13.9999 30.1514 14.0582 30.0746 14.1048 29.9963C14.1514 29.9108 14.1903 29.8137 14.2679 29.7866C14.4233 29.7205 14.7766 29.8447 14.8544 29.8253C14.9204 29.8061 14.901 29.6701 14.9709 29.6701C15.134 29.6622 15.2387 29.7748 15.297 29.7748C15.3554 29.7748 15.4988 29.7671 15.5182 29.7362C15.5377 29.7052 15.5453 29.3826 15.7668 29.2272C16.0077 29.0565 16.3028 29.1302 16.3812 29.1691C16.3812 29.2272 16.3889 29.3711 16.5443 29.3788C16.6996 29.3865 16.715 29.3593 16.8515 29.4059C16.9879 29.4525 17.1505 29.3982 17.2242 29.6271C17.2902 29.6079 17.4456 29.5885 17.4067 29.367C17.4835 29.3089 17.5506 29.27 17.7139 29.0409C17.7528 28.9828 17.8186 28.9167 17.8693 28.8312C18.0052 28.8312 18.1683 28.8041 18.3857 28.9943C18.3196 29.0409 18.2807 29.0711 18.2615 29.1184C18.3183 29.1747 18.3702 29.2358 18.4166 29.301C18.475 29.3778 18.5139 29.472 18.5876 29.4914C18.7507 29.538 19.0187 29.472 19.3178 29.4914C19.6052 29.5109 19.8459 29.6156 19.9508 29.6816C19.9898 29.6624 19.9898 29.6545 20.0868 29.674C20.1838 29.6934 20.2575 29.7011 20.1528 29.5769C20.2109 29.6041 20.277 29.6624 20.3354 29.6041C20.3937 29.5457 20.4401 29.4605 20.6031 29.441C20.7662 29.4215 20.8246 29.4487 20.8906 29.2779C20.9761 29.0683 20.681 29.0683 20.681 29.0683C20.681 29.0683 20.8169 28.9438 20.9684 28.7808C21.151 28.61 21.3606 28.3886 21.4111 28.1167C21.4966 27.6157 21.0074 27.5499 21.0074 27.5499L18.6345 28.28L15.7335 28.1362L13.2598 29.3673L13.2582 29.367Z" fill="#927D49"/>
<path fill-rule="evenodd" clip-rule="evenodd" d="M11.1263 22.5127C11.1263 22.5127 11.0495 22.6097 11.0021 22.8388C10.9548 23.068 10.975 23.0408 10.9361 23.2039C10.8972 23.367 10.4192 24.9903 10.5984 25.5379C10.7776 26.0855 11.0879 26.2875 11.2819 26.7301C11.3208 26.8271 11.3587 26.8855 11.3789 26.971C11.445 27.2582 11.3869 27.4797 11.4644 27.7672C11.4916 27.8642 11.5617 27.9768 11.6664 28.0933C11.8968 28.3339 12.2724 28.5631 12.4344 28.7261C12.6633 28.967 12.9897 29.4565 13.4052 29.5029C13.6266 29.53 13.9412 29.4368 14.2013 29.2817C14.4317 29.1378 14.5741 28.9361 14.8157 28.8209C14.9865 28.7354 15.169 28.7044 15.3321 28.6655C15.67 28.5994 15.977 28.5887 16.1595 28.6266C16.439 28.6849 17.0993 28.8869 17.4651 28.8869C17.7509 28.8823 18.0352 28.8432 18.3117 28.7704C18.8669 28.6074 19.5387 28.3275 19.9816 28.2034C20.2417 28.1266 20.4513 28.1064 20.6651 28.0598C21.0301 27.9743 21.3368 27.8578 21.5117 27.6363C21.3952 27.5004 21.2516 27.2907 20.4746 27.2984C19.5932 27.3179 18.5756 27.8071 18.0746 27.8849C17.5736 27.9627 17.3563 28.0285 16.7969 27.8265C16.2486 27.6225 16.2304 27.4876 16.2304 27.4876C16.2304 27.4876 15.6547 27.0849 15.4138 26.0583C15.1729 25.0318 15.4138 24.2837 16.0392 23.5728C16.2022 23.3903 16.1633 23.2272 16.1633 23.2272C16.1633 23.2272 16.575 22.6719 16.4623 22.152C16.3382 21.6354 15.542 21.7403 15.542 21.7403L11.1265 22.5127H11.1263Z" fill="#6E6342"/>
<path fill-rule="evenodd" clip-rule="evenodd" d="M11.7903 24.241C11.7561 24.3053 11.74 24.3778 11.7438 24.4506C11.7514 24.5553 11.7827 24.6912 12.097 24.9982C12.3651 25.2659 12.3067 25.5649 12.3067 25.5649C12.3067 25.5649 12.4416 25.5921 12.8077 25.4208C13.0952 25.2849 13.1917 25.5258 13.1917 25.5258C13.2754 25.4819 13.3661 25.453 13.4597 25.4403C13.5446 25.4325 13.6267 25.4062 13.7004 25.3635C13.7004 25.3635 14.0383 25.7091 14.3334 25.8721C14.6015 26.016 14.7569 26.113 14.889 26.016C15.0131 25.9305 15.0131 25.7556 15.0052 25.6781C14.9744 25.6065 14.9354 25.5387 14.889 25.4761C14.8035 25.352 14.6675 25.2081 14.6586 25.0921C14.6391 24.8244 14.8606 24.5057 14.8137 24.4281C14.7669 24.3505 14.5925 24.3311 14.1614 24.4865C13.715 24.6339 11.7886 24.2417 11.7886 24.2417L11.7903 24.241Z" fill="#39331F"/>
<path fill-rule="evenodd" clip-rule="evenodd" d="M12.8077 25.9769C12.8077 25.9769 12.5865 25.7672 12.6641 24.7496C12.758 24.7483 12.8517 24.7574 12.9436 24.7768C12.9436 24.7768 13.0641 25.5652 12.8077 25.9769Z" fill="#292311"/>
<path fill-rule="evenodd" clip-rule="evenodd" d="M11.2312 21.7359C11.2621 21.7131 11.2907 21.6874 11.3167 21.6591C11.2399 21.8027 10.8854 22.3774 11.1729 23.2824C11.4604 24.1833 12.1825 24.855 13.0719 24.8862C13.9612 24.9175 14.4287 24.4823 14.9632 23.83C15.1729 23.5699 15.4138 23.2435 15.6273 23.0223C15.9457 22.6765 16.1943 22.5794 16.1943 22.2456C16.1943 21.5621 15.4952 21.2552 14.466 20.9485C13.4369 20.6418 12.5087 20.6797 12.0271 20.8896C11.5574 21.1184 11.3554 21.3593 11.231 21.7362L11.2312 21.7359Z" fill="#252211"/>
<path fill-rule="evenodd" clip-rule="evenodd" d="M14.5359 26.2835L14.6127 26.2446C14.6127 26.2446 14.6319 25.9374 14.7563 25.9456C14.8805 25.9651 14.9388 26.1284 14.9271 26.1865C14.9194 26.2446 14.8884 26.3419 14.764 26.3301C14.6009 26.334 14.5352 26.2835 14.5352 26.2835H14.5359Z" fill="#3F3824"/>
<path fill-rule="evenodd" clip-rule="evenodd" d="M14.1903 24.9785C14.1903 24.9785 14.2671 24.9514 14.3611 25.0446C14.4379 25.0446 14.7727 25.0057 14.8777 25.0718C14.9826 25.1378 15.0136 25.196 15.0136 25.196C15.0136 25.196 14.6214 25.2815 14.4077 25.196C14.1903 25.1222 14.1903 24.9785 14.1903 24.9785V24.9785Z" fill="#2D2815"/>
<path fill-rule="evenodd" clip-rule="evenodd" d="M15.9186 25.0368C15.9186 25.0173 15.709 24.8737 15.4875 24.8269C15.4486 24.8192 15.4407 24.8463 15.4107 24.8463C15.3913 24.8386 15.3836 24.7803 15.3836 24.7803L15.2576 24.8466C15.2576 24.8466 15.2382 24.8737 15.3042 24.9234C15.3623 24.9699 15.4596 25.0089 15.4867 25.0864C15.5139 25.164 15.5139 25.1911 15.5257 25.2029C15.5333 25.2106 15.6693 25.2029 15.7353 25.164C15.8014 25.1251 15.9258 25.0616 15.9179 25.036L15.9186 25.0368Z" fill="#82764F"/>
<path fill-rule="evenodd" clip-rule="evenodd" d="M13.9574 25.8253C13.9574 25.8253 13.9961 25.5576 14.2564 25.5458C14.5242 25.5264 14.5749 25.7864 14.5749 25.7864L14.4195 25.9418C14.4195 25.9379 14.303 25.7749 13.9587 25.8253H13.9574Z" fill="#2D2816"/>
<path fill-rule="evenodd" clip-rule="evenodd" d="M15.6467 24.6717C15.6467 24.6717 15.5029 24.8271 15.1847 24.8737C15.1575 24.8348 15.0992 24.7572 15.1847 24.633C15.2702 24.5089 15.3672 24.4699 15.4642 24.5086C15.507 24.5155 15.547 24.5346 15.5793 24.5635C15.6116 24.5924 15.635 24.6299 15.6467 24.6717V24.6717Z" fill="#574F35"/>
<path fill-rule="evenodd" clip-rule="evenodd" d="M16.233 24.8622C16.2409 24.8233 16.2138 24.8156 16.233 24.7961C16.2522 24.7767 16.3574 24.738 16.3768 24.7572C16.3845 24.7652 16.3768 24.7961 16.3768 24.834C16.3768 24.8719 16.3768 24.9108 16.3574 24.9387C16.3302 24.9776 16.2527 24.9971 16.2138 24.9856C16.1749 24.9741 16.1672 24.9195 16.1672 24.9088C16.1864 24.9011 16.233 24.8816 16.233 24.8622ZM16.896 24.4429C16.896 24.4234 16.9621 24.3845 17.001 24.3845C17.0591 24.3845 17.0591 24.4311 17.067 24.4429C17.0862 24.4506 17.0862 24.4349 17.1057 24.47C17.1251 24.5051 17.1525 24.567 17.1328 24.6059C17.1131 24.6449 17.0358 24.6717 17.0166 24.6641C16.9894 24.6446 16.9039 24.47 16.896 24.4429V24.4429Z" fill="#82764F"/>
<path fill-rule="evenodd" clip-rule="evenodd" d="M15.5612 24.9517C15.5612 24.9517 15.6467 24.9709 15.7632 25.0682C15.7243 25.0953 15.6659 25.1263 15.6659 25.1263C15.6659 25.1263 15.6582 25.0369 15.5612 24.9514V24.9517Z" fill="#6E6342"/>
<path fill-rule="evenodd" clip-rule="evenodd" d="M15.371 24.097C15.3515 24.0778 15.4291 24.0312 15.4757 24.0389C15.5223 24.0466 15.5417 24.0778 15.5922 24.0855C15.6426 24.0932 15.6505 24.066 15.669 24.0466C15.6874 24.0271 15.7545 24.0389 15.766 24.0466C15.7732 24.0551 15.7797 24.0642 15.7855 24.0737C15.7863 24.059 15.7901 24.0445 15.7968 24.0313C15.8034 24.0181 15.8127 24.0064 15.8241 23.9969C15.839 23.986 15.8562 23.9785 15.8744 23.9752C15.8925 23.9718 15.9112 23.9726 15.9291 23.9775C15.9368 24.0046 15.9757 24.1016 15.968 24.1211C15.9603 24.1405 15.8438 24.1679 15.8241 24.1482C15.8436 24.1951 15.9291 24.2921 15.9406 24.3113C15.9521 24.3305 15.8551 24.3773 15.8164 24.3697C15.7622 24.3658 15.4281 24.1715 15.37 24.0978L15.371 24.097ZM15.8797 23.4524C15.8725 23.4329 15.8587 23.4164 15.8408 23.4058C15.8136 23.3981 15.7243 23.4058 15.7243 23.4524C15.7243 23.499 15.8011 23.7596 15.8874 23.8953C15.9846 24.0312 16.0504 24.1436 16.1165 24.1748C16.1372 24.1843 16.1608 24.1855 16.1824 24.1783C16.204 24.1711 16.2221 24.1559 16.233 24.1359C16.2406 24.1165 16.2601 23.9729 16.2524 23.6349C16.2447 23.297 16.233 22.9709 16.2135 22.9514C16.194 22.932 16.1165 22.9322 16.0893 22.9709C16.0622 23.0095 15.8874 23.3943 15.8794 23.4524H15.8797Z" fill="#585136"/>
<path fill-rule="evenodd" clip-rule="evenodd" d="M15.5341 25.4407C15.5341 25.4407 15.3982 25.3552 15.2661 25.4136C15.1419 25.4719 15.1496 25.7011 15.1496 25.7011C15.1775 25.712 15.2077 25.716 15.2375 25.7126C15.2673 25.7092 15.2958 25.6985 15.3206 25.6816C15.4061 25.6235 15.5147 25.5265 15.5341 25.441V25.4407Z" fill="#574F35"/>
<path fill-rule="evenodd" clip-rule="evenodd" d="M15.7904 25.7477C15.7827 25.6709 15.7136 25.6709 15.7136 25.6312C15.7183 25.6122 15.7293 25.5954 15.7448 25.5835C15.7602 25.5715 15.7793 25.565 15.7988 25.5652C15.8377 25.5652 15.8756 25.6118 15.9232 25.642C15.9698 25.6691 16.0397 25.7188 16.0474 25.7779C16.0551 25.837 15.9706 25.9991 15.8766 25.9991C15.7827 25.9991 15.8106 25.8242 15.7911 25.7467L15.7904 25.7477ZM16.5399 25.6427C16.5399 25.6427 16.3845 25.6893 16.3961 25.6427C16.4076 25.5961 16.4429 25.5846 16.4933 25.5846C16.519 25.5578 16.5534 25.5412 16.5904 25.5378C16.6115 25.5367 16.6322 25.5437 16.6485 25.5572C16.6485 25.5572 16.7534 25.5106 16.7844 25.5378C16.8154 25.5649 16.7923 25.5649 16.8115 25.5961C16.836 25.6308 16.852 25.6707 16.8584 25.7126C16.8584 25.7436 16.7419 25.8097 16.6485 25.7981C16.5399 25.7748 16.5591 25.6622 16.5399 25.6427V25.6427ZM17.4446 25.4679C17.4446 25.4679 17.4912 25.495 17.4526 25.5263C17.4254 25.5534 17.2895 25.6031 17.1728 25.6118C17.0563 25.6118 16.9516 25.631 16.9516 25.5923C16.9516 25.5536 17.0486 25.4758 17.1067 25.4564C17.1184 25.4418 17.1332 25.43 17.15 25.4219C17.1669 25.4139 17.1853 25.4097 17.204 25.4098C17.2506 25.4098 17.4329 25.3903 17.4835 25.3826C17.5301 25.3747 17.569 25.4018 17.5417 25.4408C17.5301 25.4679 17.4446 25.4679 17.4446 25.4679V25.4679ZM17.7127 24.2688C17.7127 24.2688 17.6543 24.3929 17.5885 24.3929C17.5225 24.3852 17.5225 24.3658 17.5225 24.3463C17.5225 24.3192 17.5885 24.2493 17.5806 24.2298C17.5614 24.2298 17.5145 24.2298 17.5225 24.1833C17.5225 24.1443 17.5885 24.0977 17.6466 24.1065C17.6905 24.0704 17.7452 24.0499 17.802 24.0483C17.8681 24.0483 17.9262 24.0675 17.9262 24.1065C17.9262 24.1454 17.8494 24.2306 17.8212 24.2503C17.7902 24.2813 17.7513 24.3015 17.7127 24.2695V24.2688ZM16.8272 26.5638C16.8272 26.5638 16.7504 26.5718 16.7504 26.6104C16.7504 26.6299 16.7696 26.6299 16.797 26.6184C16.8127 26.6175 16.8284 26.6148 16.8435 26.6104C16.8512 26.6184 16.8512 26.657 16.9096 26.657C16.9575 26.6506 17.0037 26.6347 17.0455 26.6104C17.0921 26.5912 17.131 26.5715 17.131 26.5336C17.1116 26.4676 17.0727 26.4364 17.0146 26.4364C16.9848 26.4345 16.9551 26.4412 16.929 26.4558C16.929 26.4558 16.9096 26.4169 16.8435 26.4558C16.7775 26.4947 16.7852 26.4947 16.8046 26.5142C16.8394 26.5452 16.8279 26.5654 16.8279 26.5654L16.8272 26.5638ZM16.3884 26.9678C16.3884 26.9484 16.4854 26.9094 16.5125 26.9212C16.5397 26.9289 16.6172 27.0764 16.6172 27.092C16.6172 27.1114 16.5202 27.158 16.4813 27.158C16.4424 27.158 16.3766 27.092 16.3766 27.0812C16.3766 27.0735 16.4232 27.062 16.4232 27.0541C16.4347 27.0349 16.3884 26.988 16.3884 26.9686V26.9678ZM16.0812 26.4008C16.1006 26.3931 16.1006 26.3736 16.1278 26.3542C16.1363 26.3485 16.1459 26.3449 16.1561 26.3436C16.1662 26.3422 16.1765 26.3432 16.1861 26.3465C16.193 26.3343 16.2025 26.3237 16.2139 26.3156C16.2253 26.3075 16.2384 26.3021 16.2522 26.2996C16.2988 26.292 16.3377 26.2996 16.329 26.3191C16.329 26.3775 16.3679 26.4161 16.3679 26.4627C16.3679 26.5093 16.3408 26.5677 16.2437 26.6066C16.1467 26.6337 16.0146 26.6337 15.9952 26.6261C15.9757 26.6184 15.9562 26.5405 15.9757 26.5016C15.9952 26.4627 16.0494 26.4202 16.0807 26.4008H16.0812Z" fill="#82764F"/>
<path fill-rule="evenodd" clip-rule="evenodd" d="M16.2048 26.4271C16.2048 26.4271 16.1387 26.466 16.1387 26.4855C16.1329 26.5043 16.1303 26.5239 16.1311 26.5436C16.1311 26.5551 16.2166 26.5359 16.2281 26.5241C16.2319 26.5165 16.2048 26.4473 16.2048 26.4271Z" fill="#6E6342"/>
<path fill-rule="evenodd" clip-rule="evenodd" d="M15.6273 26.2445C15.6659 26.2525 15.732 26.2445 15.7824 26.264C15.8213 26.2834 15.8485 26.3224 15.8095 26.3689C15.7706 26.4155 15.7327 26.4854 15.6465 26.4736C15.5495 26.4659 15.4563 26.4155 15.4563 26.3766C15.4546 26.352 15.4579 26.3273 15.4659 26.304C15.4739 26.2807 15.4865 26.2591 15.5029 26.2407C15.5418 26.2097 15.561 26.2292 15.627 26.2445H15.6273Z" fill="#585136"/>
<path fill-rule="evenodd" clip-rule="evenodd" d="M15.5806 26.2836C15.5806 26.2836 15.4565 26.3806 15.4252 26.4274C15.3863 26.474 15.1961 26.7147 15.138 26.7651C15.1573 26.7311 15.1793 26.6986 15.2038 26.6681C15.127 26.7172 15.0694 26.7912 15.0408 26.8777C14.9942 27.0216 15.3011 27.0992 15.5028 27.1576C15.7045 27.2159 15.7826 27.2344 15.7826 27.2344C15.7083 27.1227 15.6446 27.0045 15.5921 26.8811C15.5154 26.6985 15.4757 26.6791 15.5261 26.5936C15.565 26.5081 15.6234 26.45 15.6234 26.3839C15.6001 26.3225 15.5806 26.2836 15.5806 26.2836Z" fill="#574F35"/>
<path fill-rule="evenodd" clip-rule="evenodd" d="M11.1534 26.5905C11.1817 26.5957 11.2106 26.5957 11.2389 26.5905C11.297 26.5826 11.903 26.3601 12.5361 26.4001C13.01 26.4287 13.4797 26.5059 13.9379 26.6305C14.7341 26.8401 15.7243 27.2556 16.3651 27.4927C16.5358 27.5585 16.703 27.6752 16.8259 27.7216C17.3153 27.912 17.3345 27.912 17.622 27.9625C17.9599 28.0091 18.3055 27.8964 18.6667 27.8188C19.1094 27.7216 19.8666 27.675 20.5307 27.5779C20.7454 27.5482 20.9572 27.5001 21.1638 27.4343C21.1638 27.4343 20.6356 27.9625 19.3695 28.1527C18.8577 28.2304 18.3376 28.2369 17.824 28.1721C17.42 28.1332 17.1523 28.0749 16.9503 28.0167C16.7211 27.9507 16.2511 27.7758 15.6726 27.6327C15.2686 27.5278 14.818 27.4502 14.3017 27.3532C13.0278 27.1199 11.6454 26.8522 11.1529 26.5921L11.1534 26.5905Z" fill="#252211"/>
<path fill-rule="evenodd" clip-rule="evenodd" d="M9.72416 24.1906C9.41696 24.4506 9.09108 24.6992 8.77287 24.9399L7.81364 25.6769C7.4875 25.9175 7.16903 26.1661 6.84264 26.407C6.51624 26.6479 6.19035 26.8768 5.84424 27.0982C6.15144 26.8381 6.47732 26.5972 6.80347 26.3604C7.12961 26.1236 7.46778 25.8914 7.78241 25.6513L8.74164 24.9132C9.07162 24.6726 9.39008 24.424 9.72416 24.1911V24.1906ZM8.02714 26.909C8.02714 26.909 8.37274 26.6215 8.80384 26.2178C9.33965 25.7171 9.99603 25.0761 10.2057 24.9598L8.02689 26.9093L8.02714 26.909Z" fill="#CFB66C"/>
<path fill-rule="evenodd" clip-rule="evenodd" d="M8.02716 26.9087C8.19817 26.738 8.3807 26.5711 8.56322 26.4078L8.84278 26.1671C8.92828 26.0903 9.02556 26.0041 9.11081 25.9186C9.28156 25.7478 9.44873 25.565 9.61948 25.3904C9.70411 25.3026 9.7936 25.2197 9.88751 25.1419C9.93447 25.1003 9.98661 25.065 10.0426 25.0369C10.0895 25.0098 10.1399 24.9601 10.2057 24.9514C10.1671 25.0098 10.1205 25.0369 10.0816 25.0873C10.035 25.1263 9.99606 25.1728 9.9574 25.2115C9.8719 25.297 9.77487 25.3746 9.68937 25.4524C9.50684 25.6078 9.31663 25.7596 9.1341 25.9221C8.95158 26.0847 8.78082 26.26 8.59804 26.4231C8.40015 26.5903 8.21762 26.7533 8.02716 26.9095V26.9087ZM10.3496 25.3554C10.3496 25.3554 9.08367 26.5944 8.82332 26.7961L10.3496 25.3554Z" fill="#CFB66C"/>
<path fill-rule="evenodd" clip-rule="evenodd" d="M10.3496 25.3552C10.2357 25.487 10.1136 25.6115 9.98401 25.728L9.60001 26.093C9.47585 26.2172 9.35911 26.3416 9.22727 26.4658C9.09134 26.5822 8.96718 26.6962 8.8233 26.8037L9.19604 26.4386C9.32046 26.3145 9.45639 26.2098 9.58849 26.0853L9.96122 25.7203C10.0892 25.5923 10.2136 25.4679 10.3496 25.3552V25.3552ZM10.4077 26.027C10.291 26.3526 10.1535 26.6705 9.99604 26.9785C9.6699 27.6311 9.18068 28.4464 8.96692 28.8622L10.4077 26.027Z" fill="#CFB66C"/>
<path fill-rule="evenodd" clip-rule="evenodd" d="M10.4077 26.0272C10.4077 26.1708 10.3688 26.2953 10.3222 26.4194C10.2768 26.5437 10.225 26.6656 10.1671 26.7845C10.1087 26.901 10.0426 27.0254 9.97659 27.1381C9.91054 27.2507 9.83297 27.3669 9.7746 27.4837L9.38241 28.1749C9.24648 28.4053 9.11438 28.637 8.97076 28.8584C9.06779 28.6099 9.19988 28.3769 9.3243 28.1478C9.46024 27.9174 9.5844 27.6869 9.7083 27.4486C9.76879 27.3298 9.82322 27.2081 9.87137 27.0838C9.92948 26.9594 9.9876 26.8429 10.0344 26.7302C10.0926 26.6061 10.1391 26.4893 10.1975 26.3769C10.2633 26.2564 10.3178 26.1399 10.4072 26.0272H10.4077Z" fill="#CFB66C"/>
<path fill-rule="evenodd" clip-rule="evenodd" d="M11.7903 29.2117C11.7903 29.2117 11.4063 29.7203 11.4447 30.365C11.5494 30.0273 11.6815 29.5107 11.7903 29.2117ZM12.1554 29.7216C12.1554 29.7216 12.0194 31.104 11.9068 31.7837C12.066 30.998 12.097 31.0641 12.1554 29.7216ZM14.699 31.8654C14.699 31.8654 14.1243 33.555 14.1125 34.0245C14.2369 33.5417 14.4776 32.5553 14.699 31.8641V31.8654Z" fill="#DEC270"/>
<path fill-rule="evenodd" clip-rule="evenodd" d="M16.0427 29.1072C16.0427 29.1072 16.9748 30.645 17.674 31.9575C17.4848 31.297 17.0496 30.0856 16.0427 29.1072Z" fill="#CBAF59"/>
<path fill-rule="evenodd" clip-rule="evenodd" d="M18.5477 31.371C19.0595 32.2756 19.521 33.2077 19.9301 34.1632C19.8526 33.5029 19.6426 32.373 18.5477 31.371Z" fill="#E3C677"/>
<path fill-rule="evenodd" clip-rule="evenodd" d="M25.9108 33.6385C26.0659 33.5414 26.3729 33.0131 26.6409 32.8812C26.9087 32.7453 27.1107 32.7181 27.3516 32.4501C27.5922 32.1703 27.6588 31.9995 28.1864 31.7784C28.9244 31.4596 28.4168 31.048 28.4168 31.048C28.4981 30.9681 28.585 30.8942 28.6769 30.8268C28.8674 30.6832 29.0885 30.5083 29.0693 30.2014C29.0422 29.6851 28.9452 28.9355 28.5218 28.5005C28.9334 28.415 29.7216 28.3569 30.2114 28.2328C30.7781 28.0889 31.0385 27.8869 31.0385 27.8869C31.0385 27.8869 30.7124 27.3316 31.2405 26.7725C31.7686 26.2134 32.1997 25.8794 32.5182 25.2539C32.1531 25.2074 31.5966 25.0133 30.1763 25.553C30.253 25.589 30.327 25.6305 30.3977 25.6771C30.3977 25.6771 29.524 25.918 29.2055 26.186C28.65 26.6558 28.5801 27.0403 27.9783 27.3278C27.3764 27.6153 26.7705 27.5375 26.2697 27.7704C25.769 28.0034 25.695 28.2015 25.5122 28.287C25.5511 28.3336 25.5045 28.4112 25.5783 28.4772C25.5317 28.5433 25.2598 28.9859 24.9841 28.9859C25.0112 29.0909 25.2442 29.1684 25.2442 29.1684C25.2442 29.1684 25.0734 29.2929 24.6385 29.3238C24.8597 29.5542 25.0696 29.8054 25.6481 30.1704C25.6016 30.2675 25.4072 30.4113 25.4851 30.5939C25.5706 30.7764 25.7923 31.025 26.6773 31.2269C26.2267 31.2461 25.6988 31.3511 24.9877 31.2541C24.277 31.1686 24.1605 31.1181 23.7217 31.2269C23.7683 31.2735 23.8925 31.2735 24.0013 31.3977C23.8848 31.4054 23.1547 31.3122 22.9061 31.6386C22.646 31.9763 22.5334 32.5318 22.5528 32.9045C22.4169 32.9706 22.2848 33.087 22.3509 33.3279C22.4169 33.5688 22.7625 33.6464 22.9839 33.7977C23.2051 33.9608 23.2246 34.0189 23.4345 33.9802C23.6557 33.9336 23.9818 33.7124 24.1723 33.7124C24.3628 33.7124 24.4984 33.8561 24.4984 33.8561C24.4984 33.8561 25.0151 33.6075 25.0655 33.6541C25.1121 33.7007 25.0732 33.9997 25.1236 34.0463C25.1748 34.0813 25.7567 33.7357 25.9121 33.6385H25.9108Z" fill="#ECD592"/>
<path fill-rule="evenodd" clip-rule="evenodd" d="M37.2002 18.0972C34.773 11.8293 28.7729 10.6681 28.7729 10.6681H11.6544L11.7205 17.0525H15.1296V31.3089H11.6542V37.6817H28.299C32.3106 37.6817 35.5262 33.6505 35.5262 33.6505C40.6756 26.3419 37.1999 18.0972 37.1999 18.0972H37.2002ZM28.3884 29.3553C28.3884 29.3553 27.0828 31.239 25.6622 31.239H22.8206L22.7533 17.0681H26.4C26.4 17.0681 28.0896 17.4214 29.27 20.765C29.27 20.765 30.835 25.5522 28.3884 29.3553V29.3553Z" fill="white" fill-opacity="0.8"/>
</svg>
