<svg width="48" height="48" fill="none" xmlns="http://www.w3.org/2000/svg"><rect width="48" height="48" rx="24" fill="#000"/><path d="M12.63 34.177c.863-.005 1.727.007 2.59-.008 1.75-1.92 3.506-3.831 5.263-5.743 1.113-1.189 2.885-1.907 4.49-1.397 1.246.315 2.318 1.102 3.135 2.075 1.592 1.686 3.171 3.384 4.763 5.07.838-.01 1.676.01 2.514-.013-2.064-2.176-4.108-4.372-6.162-6.558-1.338-1.516-3.288-2.506-5.317-2.58a6.697 6.697 0 00-4.56 1.965c-1.983 2.1-3.943 4.223-5.921 6.33-.257.28-.506.567-.795.81v.049zm7.097-12.846a7.45 7.45 0 004.278 1.674 6.679 6.679 0 004.809-2.108c1.846-1.978 3.692-3.953 5.535-5.931.346-.353.655-.741 1.034-1.061v-.048c-.864.012-1.727-.003-2.588.005-1.582 1.734-3.176 3.455-4.763 5.19-.477.53-.967 1.07-1.597 1.426-.93.541-2.06.85-3.128.597a5.73 5.73 0 01-3.001-1.666c-1.72-1.85-3.438-3.704-5.16-5.552-.84.01-1.678-.013-2.516.015v.002c1.914 2.003 3.793 4.037 5.695 6.053.46.478.884.99 1.402 1.404z" fill="#fff"/></svg>